<?xml version="1.0" standalone="no"?>
<!DOCTYPE svg PUBLIC "-//W3C//DTD SVG 20010904//EN"
 "http://www.w3.org/TR/2001/REC-SVG-20010904/DTD/svg10.dtd">
<svg version="1.0" xmlns="http://www.w3.org/2000/svg"
 width="240.000000pt" height="132.000000pt" viewBox="0 0 240.000000 132.000000"
 preserveAspectRatio="xMidYMid meet">

<g transform="translate(0.000000,132.000000) scale(0.100000,-0.100000)"
fill="#000000" stroke="none">
<path d="M0 660 l0 -660 1200 0 1200 0 0 660 0 660 -195 0 -195 0 0 -41 c0
-22 4 -38 9 -34 5 3 12 1 15 -4 4 -5 -3 -12 -14 -16 -15 -5 -19 -12 -14 -27 3
-11 -1 -37 -9 -57 -9 -20 -18 -48 -21 -62 -5 -21 -14 -29 -46 -37 -23 -6 -42
-6 -46 -1 -3 5 -11 9 -19 9 -8 0 -41 16 -74 35 -32 19 -66 35 -75 35 -9 0 -16
4 -16 9 0 5 -18 12 -40 16 -22 4 -47 13 -54 21 -8 7 -34 17 -57 20 -24 4 -50
14 -58 22 -9 8 -25 12 -41 8 -15 -3 -30 -2 -34 1 -11 11 -60 12 -73 1 -21 -17
-15 -3 12 28 14 16 25 39 25 52 0 21 -4 22 -72 22 -63 -1 -82 -5 -138 -35 -65
-35 -83 -38 -60 -10 10 12 10 16 -1 19 -8 2 -29 9 -48 15 -41 13 -377 15 -385
2 -3 -5 -15 -11 -26 -14 -17 -4 -19 -3 -10 8 10 12 -39 14 -314 15 l-326 0 0
-660z m1186 505 c9 -22 19 -33 26 -29 7 5 8 3 4 -5 -5 -7 -1 -20 7 -29 13 -14
13 -20 2 -35 -12 -17 -13 -17 -17 1 -4 12 -22 24 -51 32 -41 13 -46 17 -49 48
-3 27 0 36 16 42 37 15 47 11 62 -25z m-655 -48 c-10 -9 -11 -8 -5 6 3 10 9
15 12 12 3 -3 0 -11 -7 -18z m757 -151 c17 -17 32 -39 32 -50 0 -16 -2 -18 -9
-7 -7 11 -13 11 -32 -3 -32 -22 -49 -20 -22 3 15 13 19 22 11 32 -8 11 -11 11
-15 1 -3 -7 -16 -17 -29 -22 -27 -11 -32 -41 -8 -60 13 -12 12 -16 -10 -37
-14 -13 -28 -23 -31 -23 -8 0 -45 39 -45 49 0 5 -21 18 -47 30 -27 11 -61 32
-78 46 -25 21 -28 27 -15 35 12 8 11 10 -7 10 -13 0 -23 3 -23 8 0 13 116 7
134 -7 9 -7 27 -11 41 -9 13 3 26 0 28 -6 3 -7 12 -4 25 8 15 13 19 23 13 35
-5 9 -6 22 -4 29 5 14 13 9 91 -62z m-518 -10 c0 -2 -9 -6 -20 -9 -11 -3 -18
-1 -14 4 5 9 34 13 34 5z m8 -75 c-7 -9 -14 -18 -15 -20 -2 -2 -3 8 -3 22 0
20 4 25 15 21 13 -5 13 -9 3 -23z m92 -22 c0 -5 -4 -9 -10 -9 -5 0 -10 7 -10
16 0 8 5 12 10 9 6 -3 10 -10 10 -16z m-67 -29 c3 -11 4 -20 3 -20 -2 0 -11 9
-21 20 -15 17 -16 20 -3 20 9 0 18 -9 21 -20z m54 -16 c-3 -3 -12 -4 -19 -1
-8 3 -5 6 6 6 11 1 17 -2 13 -5z m-31 -30 c18 -14 18 -14 -6 -3 -31 14 -36 19
-24 19 6 0 19 -7 30 -16z m461 -40 c2 -6 -18 -11 -44 -12 l-48 -1 35 13 c39
15 52 15 57 0z m-662 -134 c-20 -22 -31 -20 -22 5 4 8 14 15 23 15 16 0 16 -2
-1 -20z m299 -21 c-4 -8 0 -9 15 -4 14 4 23 1 27 -9 3 -9 10 -13 15 -10 5 3 9
0 9 -6 0 -6 5 -8 10 -5 6 3 10 -1 10 -9 0 -10 6 -13 15 -10 11 5 13 2 9 -10
-10 -25 -110 -19 -106 7 2 9 -2 25 -7 36 -6 10 -7 21 -4 25 10 10 15 7 7 -5z
m-324 -23 c0 -18 -17 -29 -30 -21 -8 5 -7 11 1 21 15 18 29 18 29 0z m228 -36
c39 -7 72 -16 72 -22 0 -5 -8 -7 -17 -4 -10 3 -58 12 -107 20 -49 9 -92 18
-95 22 -6 6 17 4 147 -16z m-258 -180 c0 -5 -5 -10 -11 -10 -5 0 -7 5 -4 10 3
6 8 10 11 10 2 0 4 -4 4 -10z m684 -147 c8 -19 2 -16 -25 13 -23 25 -23 26 -2
13 13 -7 25 -19 27 -26z"/>
<path d="M1100 1311 c8 -6 18 -7 22 -5 4 3 8 1 8 -5 0 -6 7 -8 15 -5 28 11 15
24 -22 24 -27 0 -34 -3 -23 -9z"/>
</g>
</svg>
