<svg id="Layer_1" data-name="Layer 1" xmlns="http://www.w3.org/2000/svg" viewBox="0 0 143 44">
  <g>
    <g>
      <g>
        <path d="M115.50791,11.31462a3.32947,3.32947,0,0,0-2.65228-1.13142l-12.33746.00047q-.41364,2.34549-.82709,4.691h1.81146q-1.18241,6.705-2.36462,13.41009H97.32646q-.41373,2.346-.82727,4.69206h12.42114a5.18758,5.18758,0,0,0,4.92187-4.59788q1.19157-6.75756,2.38294-13.51512A4.28076,4.28076,0,0,0,115.50791,11.31462Zm-11.69732,1.52411H101.563q.05475-.31011.10931-.62024h10.3711c1.707,0,2.50225,1.11617,2.16339,3.03784q-1.11512,6.32367-2.23,12.64735c-.33887,1.92168-1.527,3.0379-3.23475,3.03791H98.37089q.05466-.31013.1095-.62024H100.728Q102.2694,21.58,103.81059,12.83873Z" style="fill: #ff5000"/>
        <path d="M111.4254,27.90368q1.115-6.32367,2.23022-12.64735c.27289-1.55-.34491-2.4176-1.72174-2.4176h-7.57306l-3.08276,17.48262h7.57324A2.55363,2.55363,0,0,0,111.4254,27.90368Zm.21166-12.255q-1.03857,5.88995-2.077,11.77988c-.09967.56819-.39874.85616-.887.85616h-5.08686q1.1825-6.70536,2.36481-13.41071h5.17053a.5451.5451,0,0,1,.43653.1501A.77751.77751,0,0,1,111.63706,15.6487Z" style="fill: #ff5000"/>
      </g>
      <path d="M78.6594,11.38557A3.59978,3.59978,0,0,0,75.789,10.1832H69.16593a5.26549,5.26549,0,0,0-5.12731,4.55048q-1.20016,6.807-2.40033,13.614a4.12951,4.12951,0,0,0,.72015,3.42959,3.6,3.6,0,0,0,2.87073,1.20253h6.6231a5.265,5.265,0,0,0,5.12732-4.54955q.33792-1.91826.67566-3.83653H72.99064q-.25552,1.44735-.511,2.89471a.89021.89021,0,0,1-.93805.84717H67.01023a.61176.61176,0,0,1-.48852-.165.772.772,0,0,1-.08093-.59933q1.04881-5.94834,2.09784-11.89668a.88991.88991,0,0,1,.938-.84593h4.5315a.61422.61422,0,0,1,.48871.16466.76824.76824,0,0,1,.08056.59825q-.26285,1.48885-.52569,2.97773h4.66589q.331-1.87652.66229-3.753A4.13121,4.13121,0,0,0,78.6594,11.38557ZM66.57884,15.20413q-1.12455,6.378-2.24909,12.75593c-.27063,1.53285.39075,2.39089,1.84369,2.39088h5.57721a2.59445,2.59445,0,0,0,2.68762-2.39088q.11865-.67488.23749-1.34976h.58154q-.11874.67488-.23748,1.34976a3.29054,3.29054,0,0,1-3.37665,3.00314H66.066c-1.80133,0-2.65228-1.10278-2.31647-3.00314q1.12446-6.378,2.24909-12.75593a3.29053,3.29053,0,0,1,3.37536-3.00554h5.57721c1.801,0,2.65338,1.10386,2.31775,3.00554q-.12488.70554-.24939,1.4111H76.438q.1247-.70555.24939-1.4111c.27051-1.53294-.39112-2.39212-1.84369-2.39212H69.26646A2.59552,2.59552,0,0,0,66.57884,15.20413Z" style="fill: #ff5000"/>
      <g>
        <path d="M96.66,11.38526a3.60014,3.60014,0,0,0-2.87054-1.20206H86.7891a5.265,5.265,0,0,0-5.12732,4.55048q-1.20006,6.807-2.40033,13.614a4.12825,4.12825,0,0,0,.72016,3.42959,3.6,3.6,0,0,0,2.87073,1.20253h7.00012a5.265,5.265,0,0,0,5.1275-4.5494l2.40015-13.6141A4.12977,4.12977,0,0,0,96.66,11.38526ZM89.64463,30.9632h-5.9555c-1.80115,0-2.65222-1.10278-2.31647-3.00314q1.12455-6.378,2.24909-12.75593a3.29028,3.29028,0,0,1,3.37536-3.00554h5.95551c1.80121,0,2.65338,1.10386,2.31756,3.00554q-1.12453,6.378-2.24908,12.75593A3.29026,3.29026,0,0,1,89.64463,30.9632Z" style="fill: #ff5000"/>
        <path d="M92.84513,12.812h-5.9555A2.59552,2.59552,0,0,0,84.202,15.20413q-1.12446,6.378-2.24909,12.75593c-.271,1.53285.39112,2.39089,1.84369,2.39088h5.95551a2.59476,2.59476,0,0,0,2.68762-2.39088q1.12454-6.378,2.24908-12.75593C94.95921,13.67119,94.29734,12.812,92.84513,12.812Zm-.26751,2.77954q-1.04892,5.94864-2.09784,11.89729a.88933.88933,0,0,1-.93805.84671H84.6334a.61192.61192,0,0,1-.48852-.165.77373.77373,0,0,1-.08075-.59933l2.09765-11.89668A.88976.88976,0,0,1,87.1,14.82864h4.907a.61672.61672,0,0,1,.49036.16466A.76894.76894,0,0,1,92.57762,15.59155Z" style="fill: #ff5000"/>
      </g>
      <path d="M133.24314,14.90888q.41281-2.34177.82581-4.68354H119.77958q-2.00565,11.3772-4.01111,22.75441h14.28919q.41282-2.34233.82562-4.68463h-9.585q.4053-2.29878.81061-4.59757h7.76751q.4129-2.34239.82581-4.68478h-7.7677q.36182-2.052.72345-4.10389Zm-4.95831,6.13678q-.05484.30946-.10968.61892h-7.76752q-.76381,4.33169-1.52783,8.66335h9.58649l-.10986.619H118.18565q1.6475-9.34431,3.29516-18.68863h10.171q-.05428.30947-.10858.61893H121.958q-.72053,4.08421-1.44086,8.16843Z" style="fill: #ff5000"/>
    </g>
    <g>
      <path d="M37.53685,34.44809c.04461.07419.222-.35634.02325-.683C37.5493,33.98035,37.40745,34.23508,37.53685,34.44809Z" style="fill: #ff5000"/>
      <path d="M37.66758,11.98613c.32617.18063.40235.628.477,1.07543-.00049.25086-.00012.502-.00018.75322.00024.25117.01257.4514.01245.7025a6.09582,6.09582,0,0,1,.25177-1.02044,5.31763,5.31763,0,0,1-.12561-.9965,1.69058,1.69058,0,0,0,.00055-.50236,2.274,2.274,0,0,0-.12561-.49422,1.22218,1.22218,0,0,1,.32629.68251,9.70135,9.70135,0,0,0-.364-1.283c.01276-.051.13849-.05886.15106-.1099-.088-.14523-.33972-.1295-.42737-.27473-.07574.055-.05023.20409-.07562.30617.08832-.10595.12555-.0079.176.03919.03736.09813.07544.19626.15088.39253-.16333.16086-.239-.03538-.42755-.02354-.10034.15692.13819.44348-.12579.50987.08728.14522.08765.39639.176.54162C37.80571,12.17853,37.70512,12.08426,37.66758,11.98613Zm.06281-.255c.03766.09814.18878.23941.11316.2944C37.80528,11.92735,37.62986,11.88808,37.73039,11.73108Z" style="fill: #ff5000"/>
      <path d="M36.27287,33.44585c-.00781-.01588-.01135-.02843-.01721-.04236-.06623.16891-.28693.33167-.02.7042.05.04714.11291.29441.13843.19231C36.24845,34.0567,36.39848,33.68922,36.27287,33.44585Z" style="fill: #ff5000"/>
      <path d="M30.7017,22.59595a2.5939,2.5939,0,0,0,.58392-.94856C30.89463,21.92189,30.89146,22.20706,30.7017,22.59595Z" style="fill: #ff5000"/>
      <path d="M38.78141,32.32558l-.00256-.06467-.00714-.01138C38.77336,32.2757,38.77775,32.30025,38.78141,32.32558Z" style="fill: #ff5000"/>
      <path d="M38.62083,32.35943a1.09909,1.09909,0,0,0,.019-.51932A3.02243,3.02243,0,0,1,38.62083,32.35943Z" style="fill: #ff5000"/>
      <path d="M38.80925,32.84994a.9449.9449,0,0,1-.1507-.39245c-.113.208.16351.59234.2135.89062.07562-.0549.0379-.153.00018-.25118.07526-.055.03791.09813.07526.19627.08221-.33374-.11859-.60684-.16608-.96762C38.78916,32.54477,38.79112,32.74343,38.80925,32.84994Z" style="fill: #ff5000"/>
      <path d="M38.6309,31.76336l.009.07675A.75663.75663,0,0,0,38.6309,31.76336Z" style="fill: #ff5000"/>
      <path d="M37.73277,32.8597a.544.544,0,0,1,.07928.09813A.17727.17727,0,0,0,37.73277,32.8597Z" style="fill: #ff5000"/>
      <path d="M37.38578,34.55791c.00885-.00051-.0058-.02737-.0346-.0697.00036.00474-.00074.00667-.00055.0103C37.3621,34.5486,37.37309,34.57334,37.38578,34.55791Z" style="fill: #ff5000"/>
      <path d="M38.8552,12.92052l.011-.04461Z" style="fill: #ff5000"/>
      <path d="M38.8552,12.92052c-.00384.01727-.00909.03686-.01409.05747Z" style="fill: #ff5000"/>
      <g>
        <polygon points="25.511 31.871 25.513 31.866 25.51 31.865 25.511 31.871 25.511 31.871" style="fill: #ff5000"/>
        <path d="M25.57182,31.90473l.01355-.02556-.057-.0354A.08273.08273,0,0,0,25.57182,31.90473Z" style="fill: #ff5000"/>
        <path d="M24.56382,32.967a1.3943,1.3943,0,0,0-.18145.35387c.05407-.07894.15222-.22517.22137-.32691v0Z" style="fill: #ff5000"/>
        <path d="M28.20579,28.29614a.09057.09057,0,0,0-.02435.06056.30538.30538,0,0,1-.01776.08669c-.05085.04615-.09357.09765-.13843.14706.01263-.00407.02228-.01023.033-.01419a.4103.4103,0,0,0-.09046.10271c-.05188.07207-.10046.14538-.15234.21741a.70577.70577,0,0,1-.05475.06548l.01447.01167c.15551-.16748.31079-.33422.46362-.49923.01709.0335.0498.03453.08093.00069a1.07967,1.07967,0,0,0,.09009-.10872,1.68235,1.68235,0,0,1,.39111-.45208.30543.30543,0,0,0-.24041.08879C28.44261,28.10192,28.32286,28.19729,28.20579,28.29614Z" style="fill: #ff5000"/>
        <path d="M22.43394,32.999l-.01373.01619A.03606.03606,0,0,0,22.43394,32.999Z" style="fill: #ff5000"/>
        <path d="M39.91246,31.13173c-.01777-.07785-.03815-.23729-.06061-.44758l-.07892.0086c-.02264-.212-.04852-.47626-.07672-.76313a23.63656,23.63656,0,0,0-.30377-2.40575l-.02362-.09271.09558-.006c.04669-.00293.03314-.21942.02655-.32344-.00025-.12879-.00318-.24134-.01429-.35217L39.397,26.783a4.21413,4.21413,0,0,1-.20526-2.30917c-.03991-.32654-.735-6.45928-.71045-7.06055l-.00915-.00039c.004-.09317-.014-.424-.03717-.84275a21.22454,21.22454,0,0,1-.0553-2.61038l.00256-.01549v-.00008c.006-.03532.00995-.05963.01557-.08194l.00677-.02835.02362-.01719.01593-.01023c.005-.02672.01123-.051.01667-.0742.00482-.01819.009-.03563.01263-.05344l-.02765.00806a1.8854,1.8854,0,0,1-.07361-.31965,1.59642,1.59642,0,0,0-.07141-.30586l-.00494-.02339a1.97787,1.97787,0,0,0-.15821-.56873l-.00512-.02347a1.91908,1.91908,0,0,0-.04853-.28611,2.13535,2.13535,0,0,1-.05108-.29835,2.16368,2.16368,0,0,1-.08057-.29563,2.06023,2.06023,0,0,0-.06958-.26156.33157.33157,0,0,1-.08093-.088l-.03223-.04818.03626-.04531a.09936.09936,0,0,0,.02252-.05034.51907.51907,0,0,0-.03-.23755l-.00531-.01417.00037-.01511a.64826.64826,0,0,0-.00275-.08767.87076.87076,0,0,0-.0509-.21609.19267.19267,0,0,0-.08222-.1024.11292.11292,0,0,0-.05456-.018.2064.2064,0,0,0-.04084-.0041l-.00714.00031-.01318-.00171a.20265.20265,0,0,0-.07452.021l-.22687.12191a.2133.2133,0,0,0-.035.00952l-.17706.07118.052-.16033a.71.71,0,0,1,.06775-.14747l.00165-.00271-.0108.003c-.06256.01712-.142.0388-.20874.0632a.51713.51713,0,0,1-.02362.18155l-.00733.01928-.04944.07962-.06775-.04742v.00008l.05164.05958-.03314.04252-.0542-.0103a.1226.1226,0,0,0-.03809-.00612.16433.16433,0,0,0-.10492.04314l-.03772.01766-.47937.19177.27393-.21872.04559-.055-.01043-.00643a.21017.21017,0,0,0-.08881-.02378.16069.16069,0,0,0-.10748.04972.29638.29638,0,0,0-.05182.09682l-.01886.05832-.06116-.00348a.14.14,0,0,0-.02252.0024l-.11884.01766.0282-.11587c.01257-.04717.02258-.09342.0315-.13709-.08741.02664-.16077.04267-.19593-.0203-.02343.0086-.04944.01875-.07983.03044l-.09064.03532-.01611-.096c-.0083-.04864-.01062-.04957-.05017-.06576-.01367-.00565-.02942-.01208-.04669-.021a.36815.36815,0,0,1-.32154.14616c-.09753.00488-.15466.01084-.20929.07621l-.05383.06475L34.86,10.68325c-.05713-.05344-.0315-.13043-.00605-.19533l-.00677.0079a.49012.49012,0,0,1-.171.14445l-.1463.06227.03827-.15421c.01117-.04477.00482-.05817.00476-.05832a.18785.18785,0,0,0-.04651-.01906.23619.23619,0,0,1-.17359-.14847,1.21657,1.21657,0,0,1-.52624-.04151c-.238-.06011-.42651-.10759-.89667.21074l-.05255.03555-.04614-.04337a.0835.0835,0,0,1-.015-.01673,1.16572,1.16572,0,0,1-1.12591.29068.96666.96666,0,0,1-.43964.41971.87983.87983,0,0,0-.44256.47006.08486.08486,0,0,1-.09357.07567l-.01447-.0024c-.30066.71845-.67444,1.456-1.03711,2.17084-.18939.3744-.37.7303-.535,1.07294l.10858-.00681-.03717.11161c-.03711.11183-.59827,1.18331-1.51721,2.93474-.49677.94624-1.01569,1.93476-1.38538,2.65112l-.02142.04151-.0119.00031c-.243.34932-2.575,4.50664-2.78339,4.96075l.006.0072-.0271.04763c-2.20861,3.89121-3.22473,5.46891-3.51086,5.939l.00421.06815h.00018v0l.00477.07913c-.01722.00108-.035.00217-.05274.00216a.30266.30266,0,0,1-.03589-.00206,2.847,2.847,0,0,0-.30615.49736,6.40834,6.40834,0,0,1,.44019-.52962,5.40627,5.40627,0,0,1-.47791.68275,1.03389,1.03389,0,0,0,.327-.322c-.08905.2432.01861.05231.11993-.1453a.1535.1535,0,0,0,.06976.005c-.07525.11778-.15777.22889-.243.34107a.95648.95648,0,0,0-.16919.5915c-.00048.0261.02808-.01267.22193-.28987-.017.03741-.03113.06784-.04212.09286-.02594.03957-.06439.10022-.11993.19069.03149-.0381.05945-.07.08313-.097.00043.00659.00592-.00193.01611-.01766.08344-.09118.11676-.11066.12543-.09589a3.7978,3.7978,0,0,0-.28326.57656c.0307-.07061.15472-.295.27044-.51172l-.00128.00387c.08789-.02527-.05029.11711-.07379.21144.03314-.05153.07257-.11484.11536-.18488.09021-.16743.17138-.318.19628-.37355a.40794.40794,0,0,1-.052.13438c.14667-.24616.30548-.52158.41071-.71613a.69708.69708,0,0,1,.18713-.22588c.0846-.06434.17517-.157.26331-.23534q-.07563.19055-.15106.38108a.83818.83818,0,0,0-.03663.14028,1.029,1.029,0,0,1-.24206.41868l.05731-.0914c-.00458.00227-.00531-.00187-.00037-.01324-.04058.06064-.09808.14863-.171.26109-.01214.02169-.02655.04508-.03936.06761l-.00934.01619c-.03961.0688-.08112.1398-.12671.21579.0282-.04438.05249-.083.07819-.12269-.01557.03229-.03046.066-.0456.102a.81166.81166,0,0,1-.04486.09457q-.15069.26389-.30139.52781c.2077-.32415.37677-.58507.50024-.77553.06824-.11689.132-.22352.20417-.32336a.55384.55384,0,0,0-.03315.06219c.089-.135.09449-.13745.00037.01333.05109-.02415.5755-.72473.386-.37689-.01264.05112-.49079.734-.2265.41615.26379-.31792-.567.91742-.22761.54457-.07543.11728.46729-.66036.653-.99271-.16351.66773-.66876.99192-1.118,1.86978-.02491.10207-.302.47077-.13843.30973.415-.67873.25256-.38942.74286-1.123a1.58257,1.58257,0,0,1-.32685.57268c.05011.0471.41425-.42749.21387-.11378a5.32262,5.32262,0,0,0,.5658-.78862c.20074-.314-.60443,1.07023-.39112.70559-.189.7649.2389-.22191.06281.24119a3.45554,3.45554,0,0,1-.43982.52961c.0127.2.22571-.16488.251-.26659.00036.2508-.05091.20379-.17615.46278.201-.06281.226-.41568.47791-.68266-.415.42753-.03778-.098.1007-.157a1.17139,1.17139,0,0,1-.23913.46681c.12585-.00792.17627-.21166.25159-.2666-.08765.3569.457-.8196.39422-.56447-.07562.05486-.21356.36494-.10016.15684.28913-.41984-.521.82332-.3067.70947-.16382.41222.69653-1.03508.457-.568.17291-.10828-.39422.81541.00824.18767.0249.14916-.30151.47067-.27667.61985a10.52029,10.52029,0,0,0,.83-1.35766.34493.34493,0,0,1-.0304.14514l-.00494.01023-.00312.005.00092-.00069c-.08942.17744-.13788.29067-.05585.17721l-.00476.02525c.01911-.03407.04035-.07287.065-.11463-.0144.03974-.0653.15645-.0802.21733-.05017.05382-.05639.0439-.03533-.0038-.03687.04771-.10035.12552-.21625.265-.17615.46279.50329-.28263.67914-.49453.04-.04555.06933-.07906.09265-.10719-.04206.03114-.15375.03484.00146-.02392-.13824-.19238.25153-.26687.40247-.628-.11341-.0433-.17615.212-.23895.21586-.12586.00791.17626-.212.02526-.10208.15747-.155.22986-.22392.2613-.252-.02686.01918-.03907.00443.3034-.408-.1759.46278-.298.58491-.57477,1.20492.06244-.00386-.25519.40392-.16736.298-.00628.06846.00434.09262.02491.08907-.00745.01108-.0149.02223-.024.03346.01044-.01238.02081-.02309.0304-.03477a.3355.3355,0,0,0,.09777-.10642l.01081-.01139.01135-.02207c.08557-.13258.17029-.30547.14191-.27736l.0097-.0189a3.91655,3.91655,0,0,0,.39807-.53008c-.08807.16564-.20331.374-.29333.53411.06378-.07225.12323-.26242.2254-.29292.01819-.03168.03711-.06343.05475-.095l-.04981.09348a.0952.0952,0,0,1,.01612-.005.19114.19114,0,0,0-.0293.02966,3.08223,3.08223,0,0,1-.16608.2683c.04578-.07327.09668-.15769.14722-.24491-.089.1162-.22729.35791-.21954.28394-.02967.05251-.05542.09779-.07563.13306a.29444.29444,0,0,1,.05475-.02974c.02643-.03794.058-.08612.0921-.14065.01246-.00078.01148.01651.00348.04206.02088-.02945.04273-.05928.06372-.08923-.04162.06477-.06372.09852-.04321.07366.01868-.00115.04419-.023.07453-.05654-.0694.096-.13483.21964-.18128.27619.06122.00281.23248-.35072.20838-.254l.01062-.00945c-.11908.19783-.19831.33931-.14118.28278-.05853.23455.16132-.16676.23676-.35109.07794-.00334-.3415.60289-.1474.36728l-.00019.00054c-.03625.05685-.01526.04367.03278-.00558l.0119-.05042c.01325-.01748.02911-.0364.04614-.05863-.013.03261-.02264.0581-.03094.07985a2.47054,2.47054,0,0,0,.29224-.38912c.06317-.00394-.01252.051-.02527.10209.11505-.12636.11883-.104.089-.04377l.0227-.03578c-.00671.09216.02649.08388.07306.03114-.065.1601.12323-.07824.3056-.43443a6.24346,6.24346,0,0,1-.70038,1.2129c.2768-.11773.05915.133.33545-.23561-.02539.10207.24256-.35309.12983-.14507.46514-.63166-.345.63835.1582-.14631-.1333.26071.06641-.0089.21-.23328a.16483.16483,0,0,0,.06775-.013c-.37677.52589-.47406.5456-.87616,1.17372-.44812.57469.077.1541.551-.51662.0105-.014.01978-.02928.02875-.04388.40393-.65764.51453-.73464.86225-1.40214a.31848.31848,0,0,1-.04432.17179,7.3996,7.3996,0,0,1-.78149,1.55137c.05017.047.25134-.2669.12543-.0079a6.445,6.445,0,0,0,.718-.93342c.39612-.70451.45545-.72964.57972-.6996.05.01379.011.37392.19537.13655a.63049.63049,0,0,0,.13953-.3538.36249.36249,0,0,1,.01391-.07707l-.00586-.00131a.17714.17714,0,0,1-.08844-.03912l-.06445-.01255.07031-.149.007.00069.08112-.10092.01831-.0079a.12028.12028,0,0,0,.04211-.02982l.21845-.2442.05877-.043.05915.04926.00842.01061c.0473-.029.09125-.05739.13312-.08411l.02307-.01472-.02143-.007-.08075-.0261.04743-.11525c.01672-.04671.02905-.09489.04175-.143.01074-.04207.02209-.08411.03534-.1254a.63241.63241,0,0,1,.05127-.10069.806.806,0,0,1,.06353-.07489.12631.12631,0,0,0,.0293-.061l.00586-.02416.01831-.0165a.1307.1307,0,0,1,.09943-.04174l.0097-.017a17.02948,17.02948,0,0,1,1.28613-1.82029.9637.9637,0,0,1,.342-.38277,3.72128,3.72128,0,0,0,.29224-.31662c.02869-.03322.05859-.06715.08826-.10085l-.03516-.01758.11316-.07048.09485-.13268.01794-.00263a.17938.17938,0,0,1,.05109-.05321l.0412-.03175.006.00178.00385-.0024.24041-.1127.03589.02053a.15374.15374,0,0,1,.0326.02393l.05657-.04082a.45375.45375,0,0,1,.07563-.02827l.02765.07428.05584-.05127a.78523.78523,0,0,1,.06153-.0488l.01483-.01084.10016-.01712.02472.09364a2.49037,2.49037,0,0,1,.38818-.11687c.07977-.01968.15594-.03826.2168-.058.10339-.01433.176-.02417.21515-.03237a7.29816,7.29816,0,0,1,.75622-.12152c.11267-.01473.21192-.02758.27558-.03765a2.37953,2.37953,0,0,1,.69433-.0491c.05975.00117.124.00241.19373.0031a3.97535,3.97535,0,0,0,.9895-.06165,2.16912,2.16912,0,0,1,.631.04654c.10767.01766.20862.03447.29773.0426a.135.135,0,0,1,.03973.00047l.04834.007.01557.04639a6.75484,6.75484,0,0,1,.3598,1.90239c.01.36108.02539.68831.04816,1.00045.006.08308.01324.17195.0271.25861.00671.04181.015.08305.02526.12408a.473.473,0,0,1-.0119.23654.89773.89773,0,0,0-.01867.09016.1792.1792,0,0,0,.03588.135.18437.18437,0,0,0,.12085.07165l-.00952.07914a9.08844,9.08844,0,0,0,.614,2.69417,1.69425,1.69425,0,0,0,.0227-.58569c.0105.02477.01318.02152-.00366-.04508.06305.05839.054-.02045.02911-.11517a2.825,2.825,0,0,0,.25379.52613c-.03077-.12006-.06128-.23985-.093-.354a.06141.06141,0,0,1-.01392-.01766l.007-.0065c-.03143-.11194-.06476-.21812-.10071-.31221-.04822-.19063.08533.18711.10913.30423.03241-.03046.05561-.0244.06922-.00179-.04712-.243-.13611-.55758-.17157-.70883-.02472-.12377-.00165-.07939-.02472-.18384.00867.01082-.00977-.08648-.00861-.10133.00061-.01215.00269-.06931.01758-.04321.00855.01566.01721.03144.02527.0474l.00732.01433c-.00689-.01441-.00189.0363.0011.04225.006.01348-.00085.03379.00513.04727.03168.0667-.00617.15757.03168.21923a2.57886,2.57886,0,0,0,.156.50416.70062.70062,0,0,1,.07965.23228c.06262.24716.203.16242.16571.06429-.04779-.28318-.17254-.47083-.19647-.66044l.00623.00473a3.40235,3.40235,0,0,0,.278.68475c.04462.0416-.07538-.16071-.11591-.38253.02076.07248.05188.11732.08332-.01154.03778.09812.201.18843.16333.3414a.5166.5166,0,0,1,.12579.136.63546.63546,0,0,0,.028-.12849.25339.25339,0,0,0,.00348.044c.07537-.055-.02533-.40005.1007-.157-.02551-.14888.13868-.19355.07563-.44086-.07569-.19612.18225.464.10638.26775.33929.38065.114.596.37793.78041.04053.06732-.20569.17774-.19006.24157.21765.08365.15783.08939.245.233a.64161.64161,0,0,0,.08277-.4019c-.0196.02982-.07587-.14863-.05585-.25652-.08386-.11045-.05725-.10853-.08533-.14073.03424.02247.01264.00339.10089.09813l.00678-.01185a.03582.03582,0,0,1,.01812.007,1.29391,1.29391,0,0,1,.09137.19595l.035-.02416.00586.00673c-.00934.015-.01984.0302-.03077.04532L37.16,33.67635c-.0484.03277-.097.06576-.07745.0883.0069.01417.01373.02842.02142.04143a.09632.09632,0,0,0-.01025.08427l.07178.08412.01721.03779a.14583.14583,0,0,0,.032.02084.42721.42721,0,0,1,.05127.07962c.00073.13137-.06482.27219-.03113.30423.04328.04076.11445.15152.11573.08156-.02149-.09441-.04663-.283-.09339-.48849a.8457.8457,0,0,0-.024-.11107,2.10764,2.10764,0,0,0,.2926-.06754L37.52,33.81855l-.02838-.03376a.18438.18438,0,0,1-.00073-.03075c-.06513-.15136-.049-.18565-.00055-.177a.20017.20017,0,0,0-.01081.05127c.00843.01969.01831.041.02912.06444a.58256.58256,0,0,1,.05145.07234.32345.32345,0,0,0-.03626-.17829c.09284.03694.23908.14307.2547.04329a.04885.04885,0,0,0,.04779.02665.66335.66335,0,0,0-.02948-.22066.51318.51318,0,0,1,.10987.19161.29663.29663,0,0,0,.07086.14135.62236.62236,0,0,0,.09521.1285c.11316.29433.05787-.18016-.04266-.27434l-.01446.001a.44147.44147,0,0,0,.04083-.04446l.01428.04446.007.0168a.02989.02989,0,0,1,.00879.03c.05212.1563.12732.37151.18768.55495a.66054.66054,0,0,0-.07855-.36543c-.038-.09811.1842-.18816.14612-.28618-.033-.08483.0155-.15282-.01483-.21191.00354.01147-.00037.02266-.03022.02455-.1004-.09419-.01263-.2002-.113-.2944-.03821-.09813.03723.09815.02508.1491-.22626-.08629.02558-.23669.00019-.38579.00616-.02344.01348-.03356.022-.03555a.31876.31876,0,0,1,.09723-.25017c-.25128.01571-.01252-.20015-.15088-.39214-.06287.00394.02551.14883-.05017.20377-.06287.004.04992-.20377-.05036-.04709a1.0135,1.0135,0,0,0-.02508-.59158l.01446-.01053c.03669-.02531.075-.04733.11389-.06979a.94843.94843,0,0,0,.08533.15808c.075-.055-.02508-.14915-.01245-.20021a.87215.87215,0,0,1,.2168.3823l.00458-.02021a1.474,1.474,0,0,0,.071.43156l.007-.003a2.01208,2.01208,0,0,0,.04449.62659c-.01233.05108.03736.09811.02509.14918.0376.09815.11328.04312.063-.00395l-.11316-.29432a3.41657,3.41657,0,0,0-.00074-.4909c.07679-.09884-.0393-.65237-.01629-.74586.04-.0172.06341.03244.07635.1113-.011-.08784-.02392-.1714-.035-.24243l.02637-.00945a.20774.20774,0,0,0,.0346.04105.20546.20546,0,0,0,.04194.03207,3.15767,3.15767,0,0,1,.07983.67631c.173.2319.10315.56424.29077.70745a1.4677,1.4677,0,0,0-.03387-.28324c-.00043,0,.06231-.00395.05017.04709a1.0293,1.0293,0,0,0-.113-.5455,2.16012,2.16012,0,0,1-.15967-.56586c.00525.00022.01062.0016.01575.00139l.02087-.00248c.141.0893-.04492-.02982.0597.2425.08777.39642.1383.19224.02508-.10208a3.56861,3.56861,0,0,0,.23877.53737,3.60782,3.60782,0,0,0,.23877.53775.41731.41731,0,0,0,.00018-.25126c-.03753-.09807-.07574-.19618-.11315-.29424.12573-.00792.16357.09017.18859.23933a2.16262,2.16262,0,0,0-.2514-.7375,4.20636,4.20636,0,0,0-.10327-.4136.32671.32671,0,0,0,.08807-.10487.702.702,0,0,1,.09064.4634c.18829-.01177.01276.20021.17615.03935.06244.74932-.24506.27288.19537.74749a1.1612,1.1612,0,0,1,.18768.26,10.32165,10.32165,0,0,1-.44586-1.50591c.11267.04314.05.2982.1507.39237.05017.04715-.06262-.24714-.10053-.34528a2.77491,2.77491,0,0,1,.35157.58082c.07543.19627-.07728-.27613.06042-.08373.00006,0-.02509-.1491.01245-.051a1.03855,1.03855,0,0,0-.0628-.49818.92518.92518,0,0,0-.063-.33312c.11322.04322.02606-.01611.06317.08187C39.96318,31.26464,40.0131,31.22592,39.91246,31.13173Zm-18.89283.1292c-.0346-.028-.07757.01063-.10455.04353.0166-.02679.0415-.07011.0802-.14081C21.01725,31.29479,21.12358,31.124,21.01963,31.26093Zm2.35785.867c.02722.01076.00769.07519-.03479.16435a1.00248,1.00248,0,0,0-.16314.19208C23.27262,32.3202,23.34953,32.17936,23.37748,32.128Zm-.264.68816-.00128.00929-.00659.0038c-.01367.023-.02856.0456-.04156.06785a.47336.47336,0,0,1,.01849-.05376.30487.30487,0,0,0-.04083.03757c.01855-.02447.03772-.05111.05713-.0804l.00915-.0199.00348.00116c.179-.26932.39636-.68063.379-.61079A3.76721,3.76721,0,0,1,23.11344,32.81612Zm10.6648-10.03644a10.49188,10.49188,0,0,0-1.48242-.06188.99983.99983,0,0,0-.32318.06265,1.20338,1.20338,0,0,1-.34241.06979c-.00433,0-.00946-.00007-.0141-.00016l-.03809-.001-.02288-.03013a.13629.13629,0,0,0-.07984-.05662,1.14032,1.14032,0,0,0-.27557-.001.18079.18079,0,0,0-.02838.00256l-.1875.02022c-.10089.01013-.20172.02323-.30213.03632l-.10693.00751-.12268-.00062.0509-.1116c.14289-.313.34882-.74456.53137-1.12554l.0141-.02037a1.58424,1.58424,0,0,0,.19171-.3806.35785.35785,0,0,1,.01539-.21l.006-.02091c.015-.05283.02978-.10488.0498-.15637.01551-.04.03308-.07923.05036-.11851l.01794-.04112a.13984.13984,0,0,1,.11023-.082l.04028-.00255a33.86457,33.86457,0,0,0,1.46082-3.28445l.007-.02811.02325-.017a.87446.87446,0,0,0,.104-.12276.63065.63065,0,0,1,.16625-.17644c.10248-.163.23884-.41343.33014-.58174l.15784-.09814-.011.15491c-.01184.04639-.02709.17271-.04028.28417-.01257.10417-.0249.20356-.03607.26675l.08276-.06042q-.057.22145-.11389.44288c-.04248.88256.12415,2.85868.23493,4.16771.04644.55293.08368.98976.09228,1.19315l.00366.0828Zm1.5824,9.03085c.0169.01905.03241.038.04907.05685.00964.011.02075.02757.03277.04275A.21.21,0,0,1,35.36064,31.81053Zm.111.12919v-.00008l.00146.00124Zm.81134,1.25364a.44861.44861,0,0,0-.03461-.16474C36.341,33.06424,36.29039,33.09893,36.28294,33.19336Zm.945.41623a.24271.24271,0,0,1-.00147-.09682l.00623.00728A.10229.10229,0,0,1,37.228,33.60959Zm.46545-.28534c.05035.01921.05731.08938.06024.16033A1.7044,1.7044,0,0,0,37.6934,33.32425Zm.25635.33924c-.01349-.0384-.02838-.08614-.04541-.13577A.26205.26205,0,0,0,37.841,33.363a2.21724,2.21724,0,0,0-.136-.33545.44287.44287,0,0,1,.00146-.10882c-.02325.00966-.0246.01273-.00677-.05808a1.71676,1.71676,0,0,1-.15052-.64333c-.025-.14918.0506.04708.03772.09814a2.80709,2.80709,0,0,0,.15583.46595c.02673-.05281.06555-.07188.11444-.004.0755.19633-.02521.23677-.01282.43691.0639.105.11749.18109.17157.288A.94788.94788,0,0,0,37.94975,33.66349Zm.468-2.13868.00256-.00148.00549.02665Zm.2763-8.97379c-.0379.153.08783.396-.06317.50592C38.65641,22.95494,38.60588,22.40579,38.69407,22.551Zm-.03827,1.15753c.02509-.10209-.06292-.24724.01282-.3023C38.6436,23.50834,38.73124,23.65356,38.6558,23.70855Zm.02509.40027.02508-.10208c.00025,0,.06324-.00387.05036.04709C38.74382,24.10487,38.68144,24.10882,38.68089,24.10882Zm.08807-.10595c.01215-.051-.05035-.04707-.05035-.0471a.23314.23314,0,0,1,.10071-.15707C38.80638,23.84975,38.79454,23.90078,38.769,24.00287Zm.05054-.70652c0-.25119.01257-.553.16351-.66292C38.8571,22.89245,38.9445,23.03735,38.8195,23.29635Z" style="fill: #ff5000"/>
      </g>
      <path d="M27.39244,29.67671c-.31861.04722-.56849.42389-.817.80079-.10822.22615-.21747.45265-.32575.67911-.1087.22647-.20452.40254-.31311.62895a7.19752,7.19752,0,0,0,.256-1.009,6.46689,6.46689,0,0,0,.52368-.854,2.06633,2.06633,0,0,1,.217-.45307,2.73744,2.73744,0,0,1,.30652-.40111,1.344,1.344,0,0,0-.536.49984,11.19061,11.19061,0,0,1,.82342-1.02792c.0127-.05048-.07605-.102-.06372-.15249.12787-.09982.306.00335.434-.09646.0315.07626-.05151.20182-.0769.30274-.01886-.12669-.08905-.05163-.14667-.02694-.07025.07514-.14044.15026-.28107.30054.05115.2029.19177.05259.32538.13.00635.17706-.2937.351-.12781.50418-.128.09979-.23639.32628-.364.42606C27.20738,29.80126,27.32212,29.75183,27.39244,29.67671Zm1.17425-1.52118c-.07013.07512-.24164.14912-.21075.2254C28.42625,28.30582,28.57286,28.33266,28.56669,28.15553Z" style="fill: #ff5000"/>
    </g>
    <path d="M25.7216,11.81649l.00275-.01549-.12562-.0121-.00421.02284c.041.00119.085.00344.12708.00475m-8.528,7.6648c.046-.00749.09125-.01425.137-.02174-.00031-.00832-.00153-.01665-.00147-.02486l-.13751.02507.002.02153m9.0033-7.46147.162.00142.00055-.00821c-.05182-.0086-.10419-.01636-.15692-.025l-.00568.03181M9.92491,33.767c.06433-.04585.04931-.10962.05987-.16756-.02093.05554-.03985.11116-.05987.16756M20.91783,21.19246c-.029-.00532-.05854-.01148-.098-.0184.00262.02328.00347.0407.00787.06827l.09009-.04987m.62256,1.55133.0097-.01753c-.03357-.01634-.06873-.03282-.106-.05115-.01465.094.06055.05461.09632.06868m-5.062-3.16138c.04047.00283.08039.00728.12671.01137-.03216-.06257-.06817-.06506-.12671-.01137M9.707,32.92687a.21908.21908,0,0,0,.07233-.19964c-.02649.07159-.04932.136-.07233.19964M26.88175,10.52612c-.05444-.01534-.10742-.03064-.16149-.0468a.16544.16544,0,0,0-.01264.02966c.05524.01377.11017.02755.1637.042l.01043-.02487m-.69854-.19417c.08.0081.1488.01371.22687.02163a.24664.24664,0,0,0-.22687-.02163m-9.38526,9.324c-.05615.011-.10388.01923-.15106.02747l.00275.01253c.04284.00386.08606.00769.13476.0128.00519-.01873.00983-.03574.01355-.0528m4.21839,1.71519c.05548.01055.102.0187.16168.03029-.06384-.08455-.09949-.09193-.16168-.03029m1.17608.67016a.05038.05038,0,0,0-.033.025c-.00341.00554.00464.02341.01355.02734a.07548.07548,0,0,0,.0401.00039c.02991-.00868.05811-.01994.09888-.03354.00128.005-.00091-.01-.00567-.01032a.87749.87749,0,0,0-.1139-.00883m-1.17389,1.528c.00745.00137.01807-.02094.035-.03714-.0614-.00595-.10572-.00991-.16022-.01535.02325.06447.08185.0462.12524.05249m-.43945-.09093.20471.01923a.14033.14033,0,0,0-.20471-.01923M13.18125,33.283l.02582.00585c.03021-.09111.05951-.1816.09046-.27275l-.0282-.00612c-.029.09134-.05774.1826-.08808.273M25.97081,14.19547c.006-.11117-.11133-.04168-.15729-.0977.01806.0764.06311.10092.15729.0977m-8.41224,5.176c-.08624-.03-.12469.05651-.18933.07675a.16875.16875,0,0,0,.18933-.07675m8.76343-7.8317c.05664.08076.11072.08782.22852.02176-.083-.00829-.15863-.01521-.22852-.02176M21.47483,20.9243a.13381.13381,0,0,0-.04651-.01644.858.858,0,0,0-.09521.0049c.025.03391.04993.06874.07251.09918.01227-.01566.0296-.03263.0434-.05062.00994-.01253.0169-.02531.02581-.037M17.09239,9.73258a.30552.30552,0,0,0,.10913-.00722c-.22553-.048-.28925-.0392-.33032.0479a.21878.21878,0,0,1,.22119-.04068m8.809,2.26658c.08.00723.147.01359.21551.02a.13916.13916,0,0,0-.21551-.02m-.60187,2.08819c.0968.00928.19006.01829.29517.02806a.27661.27661,0,0,0-.29517-.02806m-5.92639,5.34741c-.02594.09306-.012.10483.07471.082a.43073.43073,0,0,1,.08606-.00391c-.011-.09816-.12348-.02106-.16077-.0781m2.768,2.68307c-.02893-.06972-.15112-.05766-.264.03269.08557-.01049.1715-.021.264-.03269M9.24961,33.9477c.0113-.07357.03009-.14742.046-.2247a.51131.51131,0,0,0-.13421.26968c.05481.01957.08008.00721.08825-.045M14.93724,9.70822c.097.01753.20129.03552.31366.05578a.23958.23958,0,0,0-.31366-.05578m6.49328,11.464a.16093.16093,0,0,0,.15821-.02939c-.02393-.03228-.02112-.0824-.08552-.05888a.85091.85091,0,0,1-.117.02322c.0127.02152.02148.05357.04431.065M9.35948,33.379a1.03662,1.03662,0,0,0,.15344-.50282c-.04956.16579-.10034.33226-.15344.50282m12.845-11.04956a.12242.12242,0,0,0-.16242-.027c-.01989.00937-.0288.03933-.043.05893.02338.01066.04779.03477.0683.02953a1.0045,1.0045,0,0,0,.13715-.06141M15.27378,27.06l.01264.00916c.01245-.00413.02441-.00908.04138-.01609-.01233.057-.02283.109-.03387.16188l.01629.002c.03644-.11556.074-.23182.1106-.34812l-.02454-.00749c-.04053.06653-.0813.13216-.1225.19865m5.87586-4.19737a1.1198,1.1198,0,0,0,.39258.01174c.0628-.00966.12335-.01031.18512-.01671.02423-.00247.04974-.00985.07434-.01387l-.0033-.0142c-.22192.01174-.444.02262-.64874.033M17.142,19.13338c-.0788.01181-.15827.02449-.25177.03856.084.1132.18182.09037.25177-.03856m3.89264,1.9847c-.00788-.0087-.01508-.02416-.02216-.02468a.49493.49493,0,0,0-.17047-.01028.21591.21591,0,0,1-.20215-.03388c-.02026.01835-.03735.03211-.0509.046.13806.01455.276.03.41363.043.00837.00057.0207-.01349.032-.02011M20.23558,9.72862c-.11091.01207-.2226.02408-.33252.03619l-.002.02051a.269.269,0,0,0,.33454-.0567m-4.54853.13029a.10525.10525,0,0,0-.13293-.0704c-.07935.01426-.15711.027-.23987.04185.11066.06883.24237.0087.3728.02855M27.3,13.0201a.24706.24706,0,0,0,.28985-.021c-.077-.07225-.18072-.06629-.28985.021M14.81492,27.795c-.01446.09974-.019.2001-.02838.29944l.007.0029c.04748-.13455.09387-.26921.14117-.40706-.06756-.00472-.10968.0262-.11975.10472M26.45549,11.81331a.48078.48078,0,0,0,.278-.01608c-.03418-.04943-.07556-.08948-.1366-.069a.23686.23686,0,0,1-.18915-.00333c-.00463.05337.005.078.0478.0884m.54364,1.67541c-.29529.00164-.59119.00489-.86335.00735a2.16851,2.16851,0,0,0,.86335-.00735M16.85746,18.93931a.15523.15523,0,0,0,.04267-.06561c.02826-.1474.05719-.294.07965-.442a.31937.31937,0,0,0-.02637-.11494l-.02307.00831a3.088,3.088,0,0,1-.07288.61422m-.72784-8.88515a.91008.91008,0,0,1-.33655.0351.34985.34985,0,0,0,.15912.04993c.13678-.00527.2735-.02381.41052-.03735a.26847.26847,0,0,0-.23309-.04768m2.99029,9.30009c-.073-.01419-.15246-.01645-.22815-.02414l-.01171.01893c.10382.05853.20733.11689.30908.17526.02283-.0926.00305-.15673-.06922-.17m8.61036-6.59885a.15942.15942,0,0,1,.03552-.00247c-.00946-.00973-.01752-.02848-.02747-.02834-.05182.0013-.1065.00577-.15838.01121a.39191.39191,0,0,1-.06482.012.99227.99227,0,0,0-.386.04981l-.0022.02131c.09851-.008.19678-.016.2959-.02307.04767-.00327.10358-.02162.14044-.005a.071.071,0,0,0,.085-.00728.28181.28181,0,0,1,.082-.02812M18.25364,19.145a.10336.10336,0,0,1-.1018.04086.5004.5004,0,0,0-.16608.04532l.0011.01656c.07916-.00351.15777-.008.24719-.01239-.00024.00652.00049.02151.0011.03639.0824-.02064.16443-.04053.24664-.06117a.0765.0765,0,0,0-.08276-.052c-.04547-.00155-.08966-.0079-.14539-.01355M14.01255,9.51227a.27408.27408,0,0,1,.24005.01761c-.004-.07711-.00927-.13687-.01409-.21072-.12049.06426-.22522.11885-.32886.17436l-.00293.01712a.3458.3458,0,0,0,.10583.00163m-3.778,23.35323a.67684.67684,0,0,0-.054.17127.878.878,0,0,1-.07672.31338.77.77,0,0,0-.04065.1854l.01557.0061c.01-.02243.021-.044.02948-.06653a1.91254,1.91254,0,0,1,.07708-.23487.40945.40945,0,0,0,.06427-.29519.54316.54316,0,0,1,.03278.046c.01379-.00893.031-.01847.06372-.03851-.08014.00017-.103-.0328-.11151-.08708m.09375-20.92319c.01678-.0137.04535-.02654.04834-.04121a1.22742,1.22742,0,0,0,.02014-.23888c-.004-.06471-.04895-.081-.1311-.067a.32849.32849,0,0,0-.005.07974c.00977.075.02259.14857.03626.22219.00427.01683.02063.0295.03131.04512m5.25238,13.8865-.015-.00519a.42179.42179,0,0,0-.04815.08256c-.02985.08542-.05414.17127-.076.24737a.27714.27714,0,0,1,.0357.08177.32331.32331,0,0,1-.02014.09272q-.03661.18159-.07306.36317c.04621-.05869.0423.0203.06482.01108.01837-.08707.03546-.17346.054-.26461-.01618.00714-.02826.01135-.05164.022.04468-.21729.08557-.42423.12946-.63089m3.22742-6.63346c-.06257.00554-.12421.00465-.18567.01014a.37183.37183,0,0,0-.0738.02952c.07508.02593.12818.04367.18183.06234.06964-.03482.1452-.07241.2157-.10794l.00879-.044a.1998.1998,0,0,1,.052.0127c.01221.00824.01526.02583.02252.03875.04059.06718.10126.07233.17413.01709a.371.371,0,0,0-.38543-.06578c.01806.00376.03173.008.04651.01154a.09013.09013,0,0,1-.05658.03563m6.48321-7.63272-.00787.02586a.87746.87746,0,0,0,.15692.03824.62811.62811,0,0,0,.15362-.0223.788.788,0,0,1,.34754.0111l.00439-.01539c-.05322-.01528-.10644-.03138-.15967-.04748l-.00073-.0141c.04267-.0077.08673-.01455.13275-.02291-.15539-.13474-.35485-.03637-.535-.04236.06592.00713.13123.0133.20306.02-.08892.1201-.197.06716-.295.06937m-9.509,13.48843c.01324-.05018.0213-.1.03076-.14976l-.015.02294a.37565.37565,0,0,0,.01832-.102c.005-.0665.00781-.1324.01116-.199.00226-.02133.007-.0425.00971-.06377l-.01227-.00086c-.03534.16929-.06952.33864-.10364.50553-.02508-.01333-.0462.00015-.05291.03435a.94426.94426,0,0,0-.01722.10525,1.20919,1.20919,0,0,1-.07452.44562.2524.2524,0,0,0,.12177-.15747c.03741-.11125.07818-.2216.11444-.33214a.07075.07075,0,0,0-.00824-.04769.225.225,0,0,1-.02234-.061m-.53375,1.5563a1.00513,1.00513,0,0,0-.08478.151,1.612,1.612,0,0,1-.2688.52288.22516.22516,0,0,0,.2666-.163c.05511-.1836.10321-.36847.15948-.571a.33614.33614,0,0,0-.0725.06014m.61505-16.68822c-.0268-.00021-.05085-.00026-.09613-.00011a1.392,1.392,0,0,0,.56982.02084c-.04974-.01336-.09869-.02754-.14886-.04179a.2269.2269,0,0,1,.10913-.00309c.05542.01132.07763-.00033.09558-.06185-.06.00655-.11957.01311-.17835.01974-.00024-.00415.00012-.00828-.00018-.01323.05872-.01408.11938-.028.17981-.04193a.12376.12376,0,0,1-.00073-.019c-.16791-.01586-.33527-.03335-.50428-.046-.01654-.00116-.03631.02717-.05694.04226l.01172.014c.0213-.006.04413-.0118.08423-.0222-.03595.03131-.05829.04962-.08368.07095-.01319-.029-.02246-.0503-.03681-.07938l-.045.04063c.04108.03755.0777.07067.11426.1046l-.01355.01556m-2.02369.34483a.21476.21476,0,0,0,.21186-.08674c-.08484-.01171-.14014.04219-.21186.08674m-.5429-.17585c-.02741-.03086-.05255-.05734-.06629-.074.03467-.06281.06726-.11916.09668-.17655a.14692.14692,0,0,1,.14392-.089c-.00958.02412-.01666.04754-.03149.087a1.15951,1.15951,0,0,0,.19354.00693A2.1043,2.1043,0,0,0,13.92118,9.78a.62283.62283,0,0,1,.27521-.03278.08926.08926,0,0,1,.03662.015.70319.70319,0,0,0-.399.1034,1.90314,1.90314,0,0,1,.26733-.01764,3.26754,3.26754,0,0,1,.41034.05263,1.68316,1.68316,0,0,0,.50976.00592A.12706.12706,0,0,1,15.107,9.924a.58715.58715,0,0,0,.252.101c.07733.0112.15362.03306.23108.05l-.00641.021c-.184-.01782-.36725-.04217-.55243-.05184a2.34868,2.34868,0,0,0-.65534.03179.79954.79954,0,0,0-.37957.20136c.02087.04273.05529.03276.09008.01124a.07.07,0,0,1,.10566.01648c-.13.01569-.244.02915-.3664.04373.00568-.06565-.04608-.07336-.10638-.0735a.71844.71844,0,0,1-.12616-.01046c-.04688-.00742-.05823-.04039-.03351-.07914.02612-.03945.06213-.07243.08991-.11014a.18924.18924,0,0,0,.04541-.07691c.01025-.07194-.03174-.09882-.10016-.06645-.04474.02081-.08588.05014-.13239.07743-.06891-.04859-.09637-.03728-.16534.07845m1.91546,15.36815c-.0083.02586-.01672.0501-.02453.07179a1.33432,1.33432,0,0,1-.01593.197l.00073,0a.51052.51052,0,0,0,.03973-.26888m-3.46179,8.01155c-.00409.01868-.01031.03726-.01593.05582.02368-.02061.04578-.04139.06812-.063-.01618-.01683-.03168-.0319-.04688-.04615a.19931.19931,0,0,1-.00531.05329m-.15527.18566q.01794-.07319.03442-.14623c.03076-.13-.11035-.01436-.28766.15077l-.00384.0163.04541-.001c-.00623.02268-.0138.04364-.019.0639-.03058.13076.08123.051.23071-.08377m-.39734.03415a.59584.59584,0,0,1-.0304-.13843c-.04419.06217-.08947.12508-.134.18878l-.00366.00554-.00055-.00083c-.00684.01183-.016.02363-.0249.03622a.43132.43132,0,0,0,.19354-.09128m-.15985-.29853c.02-.02262.03906-.04348.05823-.06451-.00123-.01492-.00391-.0292-.0055-.04412l-.02362.00162c-.00885.03569-.01947.07137-.02911.107m-.43964-.764c.02722-.13515.05652-.26935.07892-.40485.01984-.1142.03729-.2302.05658-.34448a.349.349,0,0,0-.04083-.21671,2.51091,2.51091,0,0,1-.13294.41679c.01911.2201.03119.41743.03827.54925m-.12286-2.04149a.95042.95042,0,0,0-.07929.24714,3.89018,3.89018,0,0,1,.08826.50248,2.11781,2.11781,0,0,0,.01337-.3319c-.007-.13005-.01453-.27014-.02234-.41772m1.021,2.888a.64519.64519,0,0,1,.20362-.11051.323.323,0,0,0-.02838-.02423c-.03675-.02319-.07508-.04491-.11042-.06475a.48376.48376,0,0,1-.06482.19949m.01062-.1818c-.043.09108-.09069.18111-.13549.2721.04052-.02861.07788-.05649.115-.08194a.18871.18871,0,0,1,.00695-.054.21865.21865,0,0,0,.02088-.17686l.00036-.00248-.00091-.00006a.09891.09891,0,0,1-.00678.04326m-.13366-.02418a.38384.38384,0,0,0,.00641.14167.28244.28244,0,0,0,.01062.02964c.07507-.05509.06652-.13658.09759-.20377-.02173-.01138-.04431-.02372-.06592-.03436l-.0487.06682m-.36292.30494.01776-.03845a.51986.51986,0,0,0,.06775-.13071l.00019-.00161c-.0282.03605-.05811.07357-.09137.11335-.00769.02763-.01441.056-.0207.08361a.26581.26581,0,0,0,.02637-.02619M22.68736,9.78693c.04083.00207.08343.005.12561.008-.03876-.04725-.06427-.04994-.12561-.008m2.03247,1.79684c.00067,0,.003.01672.00952.01719a.38391.38391,0,0,0,.23712-.02141c-.0003-.00747.00031-.01486.00055-.02225-.08215.00912-.16272.01757-.24719.02647m.66962.84363a.27829.27829,0,0,0,.27923.03687c-.03888-.08612-.14484-.09765-.27923-.03687M15.339,24.60641c.00586-.03839.00464-.0591-.00678-.06983-.02215.08188-.05828.20073-.10144.32487.0008.03964-.00018.07928.00055.11891.00544.00039.01-.00016.01667.0003.00524-.00617.01257-.01143.01409-.018.02662-.11862.0575-.2371.07691-.35625m-.18933.691a.18639.18639,0,0,0,.02875-.17051c-.01032.0504-.02033.10264-.032.16047l.0033.01M15.23,24.716c.02533-.07249.04755-.13869.06665-.19022a.36255.36255,0,0,0-.06756.0077c.00079.06037.00006.12138.00091.18252M13.141,31.84677c.0354-.10908.07276-.218.11005-.32591-.01551-.03915-.05847.10236-.11005.32591m4.66278-12.35991a.45871.45871,0,0,0,.29791.10666l.01465-.02209a.592.592,0,0,0-.12561-.06408,1.265,1.265,0,0,0-.18695-.02049m.566.15016q.08083.05277.1626.10549c.00976-.00752.01819-.01431.02893-.0211-.012-.03554-.01123-.08916-.0379-.10254a.40326.40326,0,0,0-.14154-.01645c-.00373.01206-.00873.02331-.01209.0346m1.82611,1.37954c.0202.03033.03119.04839.03571.05364.04669-.00662.08172-.0125.11517-.01757-.00445-.00687-.01507-.0184-.02563-.03069.07428-.00961.08-.01335.08276-.06936-.05243.04019-.10321.05725-.12946-.00982-.02288.03142-.00055.08835-.07855.0738m.32227.77055a.191.191,0,0,1-.00879.03079l.11224-.01036a.09559.09559,0,0,0-.10345-.02043m5.39868-9.37733c.01941.01128.03674.03229.05749.03374a1.58043,1.58043,0,0,0,.22394,0c.06214-.00641.12634-.02915.19043-.04038.0152-.00307.03205.01134.04779.01739l-.00567.00868c.098-.00221.19525-.00367.30029-.00624a1.11625,1.11625,0,0,0-.81427-.01318m.83661.11381c.05469-.00277.10376-.00512.16845-.008-.079-.05674-.11938-.05456-.16845.008m-6.15491,8.294c.0835.00837.15662.01506.24316.02366-.1007-.09286-.157-.09931-.24316-.02366m.07324.99436c.045.06421.09107.07158.1886.02561-.03448-.1238-.12689-.01466-.1886-.02561m.33417-.046a.15316.15316,0,0,0,.19025.04961c.04345-.015.08435-.03531.12872-.05206.03778-.0147.056-.00692.03845.02831.07562-.00627.14716-.0137.23126-.021-.18811-.13778-.38671-.04938-.58868-.00484m-.065,1.99367a.61314.61314,0,0,1,.04376.05007.237.237,0,0,1-.17541.00921,1.52264,1.52264,0,0,0-.15033-.04355l-.01685.01539c-.02557.08978-.0274.0955-.124.09036a.72637.72637,0,0,1-.20014-.04116.17514.17514,0,0,0-.19647.03742c.01178.01486.02216.03043.033.04526.00854.0138.01831.02769.03516.052-.065-.00617-.117-.01067-.17029-.016l-.007.02013c.05487.02371.11188.04666.16736.0695l-.00659.00946c-.06116-.01081-.12061-.02165-.18567-.03272-.00476.01938-.01209.04289-.01941.07127a.28022.28022,0,0,1-.03479.00249,18.49045,18.49045,0,0,0-3.59162.26325c-.14953.01845-.47668.07487-.62677.09653-.103.01516-.20489.02207-.31347.03261-.01306.11216-.02808.22183-.03992.33167-.00665.06223-.01288.12374-.02124.18424.05646-.17107.0954-.2889.07141-.208.01929-.03255.03845-.0659.05457-.09945-.03266.09846-.084.24933-.13495.40507-.01587.14265-.03015.28526-.04743.42855-.02038.19508.42847-1.14008.403-.94536a3.99818,3.99818,0,0,1-.20764.82522c-.01129.03313-.04328.07384.00494.10361.00708.00629.0022.034-.00073.05033q-.08615.42863-.17523.85551a.19136.19136,0,0,1-.031.06141,2.0706,2.0706,0,0,0-.36255.63028q-.109.61284-.21807,1.22657l.02417-.00986a.78368.78368,0,0,1-.0542.2058c-.00409.01209-.01081.02405-.0141.037-.03949.21357-.0799.4279-.12195.64132-.17932.88495-.4397,1.66607-.65955,2.54657a.71679.71679,0,0,1-.16571.24032c-.01306.0172-.022.00919-.02856-.01355-.0351.17672-.07.34518-.1051.51361l-.02454-.00249c.02051-.13325.03564-.26589.06189-.39863a.454.454,0,0,1,.067-.11756,1.89377,1.89377,0,0,1-.00348-.31313,3.51759,3.51759,0,0,1-.24134.7378,1.21947,1.21947,0,0,1-.06225.10547l-.02307-.00663c.0094-.08356.0155-.16729.03131-.25039.05591-.28925.12549-.57674.17486-.86633.01288-.076.02033-.15223.02729-.22851a3.09039,3.09039,0,0,0-.213.41609,18.85658,18.85658,0,0,1-.722,2.43324l-.0238-.00243c.00756-.0746.011-.14953.01977-.224.02338-.17095.05206-.34154.08807-.51163a12.64771,12.64771,0,0,1,.29352-1.55981l-.01318-.00092c-.00482.01363-.01007.02652-.01373.0395-.02875.13255-.05439.26371-.08313.39541a.3559.3559,0,0,1-.13825.20756c.03876-.24583.11517-.48574.17249-.727-.00531-.1225.00079-.29312-.134-.05975a14.44682,14.44682,0,0,0-.63775,1.68447c-.078.33809-.14148.677-.22687,1.01383-.06085.24178-.14362.48039-.22284.71847a.58713.58713,0,0,1-.1051.16768,1.94869,1.94869,0,0,1,.18622-.60793c-.04023.0203-.06928.034-.11646.05794.17566-.42459.06567-.51648-.09759-.58646-.02485.07917-.0506.15828-.074.23672l-.00549.017c-.08222.04049-.08539.1311-.14227.18821l-.03022.00945a.53511.53511,0,0,1,.02161-.09752,3.04643,3.04643,0,0,0,.14447-.38794.49521.49521,0,0,1-.27741-.21669c-.20928.2-.4295.41005-.46728.35622-.15906.22416-.28.39244-.27411.38293a.47029.47029,0,0,0,.04468-.16537c.02295-.1189.05334-.23732.08423-.35487-.14618.1681-.25824.2849-.2602.24932-.06854.06128.097-.15091.30616-.4038l.00787-.02508c-.00092.00569.00323.00675.002.01171.04194-.05076.08564-.10223.12873-.15372.00207-.02133.0039-.04434.00677-.06637l-.02051-.00721c-.03283.05459-.06713.11-.10015.16311a.87965.87965,0,0,0,.01922-.41645c-.08191.04379-.02368.12375-.07947.17362.00245-.10726.00415-.21354.00714-.32153a.24.24,0,0,0-.1452.22345.11314.11314,0,0,0,.02033.04111c.00372.077.0075.15908.01446.24127a.1919.1919,0,0,1-.07818.18527c.00927-.11991.06579-.23312.01684-.35632-.01575.07732-.0271.13844-.04156.20016-.00482.01785-.01715.04429-.0304.04826a.05677.05677,0,0,1-.04962-.02158.06053.06053,0,0,1,.00073-.0512c.02161-.05626.04712-.11233.06867-.1686.0039-.00964.004-.02037.00842-.02907a1.2351,1.2351,0,0,0,.1-.4241c.021-.138.047-.27656.07415-.41511-.00769-.11036-.01916-.29527-.03662-.57227a1.35029,1.35029,0,0,1-.08093.16282c.00342-.02621.0083-.05311.01337-.09819-.05463.09529-.05683.19254-.14118.26593.02027-.16041.03687-.30955.05695-.45928l-.02161-.00064c-.16321.48894-.252.98642-.37006,1.48268.01612-.13842.02857-.27632.05219-.41414a6.602,6.602,0,0,1,.24792-.93385c.01539-.04439.02747-.08817.04029-.13186-.13172.16921-.28052.33963-.336.25645.01813-.201.03644-.37728.05365-.53455-.06079.20552-.10437.34112-.09723.25907-.11371.21081-.05914.459-.17523.68626.06891-.252.02984-.50076.09064-.74669.04425-.18349.10211-.36528.15472-.54819.03509-.12056.24139-.98473.38837-1.67379l-.01667-.35625c-.00463-.0771-.00817-.17144-.01281-.27505-.14161.61934-.42176,1.83742-.43415,1.92162a.22675.22675,0,0,0,.01374.11992.09126.09126,0,0,1-.0163.09625c-.06769.1076-.13068.2163-.19354.325-.05872.28156-.11695.56245-.175.84983-.05634-.03123-.05206.01284-.05951.04285-.05792.27423-.10663.5508-.1756.82418-.05.19062-.12616.37683-.19025.56469a.44654.44654,0,0,1-.02453.03874,12.88077,12.88077,0,0,0,.31018-1.53638c-.02478.07589-.05249.1524-.07086.22874-.06568.26369-.12561.52879-.1908.79248a1.57287,1.57287,0,0,1-.1983.49236c-.01673.02519-.037.04941-.06519.08869a1.03017,1.03017,0,0,1,.05091-.38784c.04443-.12156.09607-.24183.14575-.36628-.12763-.02549-.04376-.15911-.06665-.29693a.54231.54231,0,0,1,.11719-.3989.81164.81164,0,0,0,.12341-.56031c-.04206.07145-.086.14927-.12982.22626l-.02509-.00917a.82165.82165,0,0,1,.10217-.27771.28354.28354,0,0,0,.05658-.19921.27615.27615,0,0,0-.01721-.03916.52207.52207,0,0,0-.08459.122,1.933,1.933,0,0,0-.03626.194.473.473,0,0,1-.0368.10811c-.01563-.2471.00989-.347.1192-.46234-.076-.00693-.08154-.04943-.06976-.1147.14715-.81865.685-3.27043.83038-4.08921q.15006-.84286.30157-1.684c.46662-2.98119.62592-7.16879.81592-10.03141-.43182-.19783-.87909-.39508-.84869-.60267.01062-.067.02087-.13309.03277-.20741a.321.321,0,0,0-.072.00565c-.04992.01384-.07727-.00214-.0747-.05059.01019-.347.0213-.69462.06335-1.04337a.06675.06675,0,0,0,.00055-.01154,1.04612,1.04612,0,0,0-.22943-.06892c.02148-.02652.04236-.05322.06189-.07986.0589.00577.119.00908.17761.01241.03406-.4105.01563-.81725.0379-1.22847a.28155.28155,0,0,1,.00934-.034l.05036.08357a.38979.38979,0,0,0,.02911-.07388.50313.50313,0,0,1,.15216-.33783.51831.51831,0,0,0,.1994-.33452c.08515-.00314.16986-.00052.25269-.0104a9.73962,9.73962,0,0,0,2.24872-.34148c.02337-.04871.02472-.10561.04705-.15525.03809-.09228.0868-.18137.12891-.27255a.54746.54746,0,0,0,.048-.1238c.01337-.06844.0257-.14021-.056-.17814-.00036-.00576.00049-.01153-.00018-.01735a.84539.84539,0,0,1,.17175-.05818.22306.22306,0,0,0,.12964-.057.0971.0971,0,0,1,.05164-.02693,6.98056,6.98056,0,0,0,1.22589-.17439c.11584-.02.23059-.03177.34735-.0492a.26984.26984,0,0,0,.06738-.02584c.04773,0,.09534-.00157.15088-.00265.00122.00669.00611.02189.01355.05048-.02417-.01571-.03589-.024-.05786-.03625-.01007.02243-.01654.03933-.028.06741.08587.01673.166.03467.24572.04773.03144.00551.06159.006.09192.00973.29944-.04346.60181-.08342.90161-.11943l.02124-.00264c.25666-.03079.51215-.06083.76813-.08749a.39406.39406,0,0,1,.06757-.22894c.05322.07062.10412.13938.15436.20814.29614-.02885.59143-.05606.88861-.07988l.05346-.04087a.3506.3506,0,0,0,.02033.03528c1.01819-.08152,2.03784-.13492,3.05749-.17346l.02509-.01475.1062.00989c.09662-.004.196-.00775.29462-.0116.13122-.004.26147-.00236.39331.00192-.0069-.017-.01313-.02982-.0185-.04175a1.112,1.112,0,0,1,.527.074c.38556.036.77094.09273,1.15155.14741a.88234.88234,0,0,1,.58136.30736c.15533.00759.31073.01433.46637.02436a3.70259,3.70259,0,0,1,.65405.02592c-.13727.05564-.2752-.011-.41345.05034.131.005.26209.0175.39294.01345a.906.906,0,0,1,.4726.12057c.01343.00668.02063.02043.0304.031l-.007.02016c-.086.0047-.17316.00936-.26111.01559-.09515.00489-.18878.01158-.2829.01573-.07831.0036-.1579.0005-.23529.00666a.55223.55223,0,0,0-.27942.09523c.06384-.003.12818-.00753.19354-.00793.01319.00012.02564.015.0467.02887a5.9317,5.9317,0,0,0,.69488.061,6.47007,6.47007,0,0,1,.85492.04328,1.2412,1.2412,0,0,1,.21057.06591,1.18384,1.18384,0,0,1-.38122.0939,2.20955,2.20955,0,0,1-.59748-.04838c-.23785-.04145-.478-.07719-.71832-.10639-.035-.00411-.08276.04461-.1311.07342a1.01431,1.01431,0,0,0-.54969.045c.04358.00467.08814.01113.13331.01262.04394.00142.09069-.00024.13586-.00289.17444-.01094.34851-.02847.52222-.032a1.42951,1.42951,0,0,1,.306.0379.37093.37093,0,0,0-.08881.01526.35085.35085,0,0,0-.07379.04851l.007.022c.07629-.00208.15393-.0033.23034-.007a.11994.11994,0,0,1,.14246.09089,2.012,2.012,0,0,1-.68225.01009.176.176,0,0,1-.05585-.0196.33418.33418,0,0,0-.30029-.02678,2.21577,2.21577,0,0,0-.42536.17173l.0011.02237c.137-.00364.27277-.00238.41-.011a.95575.95575,0,0,1,.40612.02841l-.01025.01992-.00861.011c.07349.00677.14856.01453.23987.02338a.31177.31177,0,0,1-.23181.07213.82208.82208,0,0,0-.19977-.01892c-.15521.02548-.30707.06688-.46033.10158a.21106.21106,0,0,0,.00385.025.65315.65315,0,0,0,.10529-.024c.08667-.03524.10461-.03233.15179.03537-.0296.00946-.06158.018-.1051.03147l.06024.05128c-.08887.00949-.17847-.07113-.256.03906.12231.01187.2406.02344.36493.03461-.00183-.03565.0072-.04572.05072-.03114a.71071.71071,0,0,0,.18731.03209c.11463.00723.23291.0072.34955.01372.0138.00015.02478.01991.03021.03679a1.994,1.994,0,0,0-.89739.07184c.02215.00238.0451.0048.06738.00637l.07068.00741c-.00031.00659.00055.01241,0,.019-.11359.01767-.226.04195-.34131.05211a2.19258,2.19258,0,0,0-.48853.06245c-.01837.0053-.03473.01161-.06665.02258a1.21393,1.21393,0,0,0,.58338.01933.9507.9507,0,0,1,.49347.00809c.034.01145.06427.03007.09686.04309.01367.00594.03784.01175.04669.00493a.05114.05114,0,0,0,.02087-.04644.05448.05448,0,0,0-.04394-.0295.46951.46951,0,0,0-.091.03162c.006-.02849.0047-.06658.01721-.07311a.24884.24884,0,0,1,.10949-.02371c.01844.00045.03614.0273.04871.04551.041.05654.06281.058.11133-.00047l.02161-.02738c.0606.152.19219.17118.34332.147a1.07116,1.07116,0,0,1,.67877.09371.1713.1713,0,0,0,.18384-.0268c-.0202-.008-.03449-.01395-.05-.02082l.00824-.00769c.02319.00495.05505.00219.07159.01574.04633.03958.04645.0429.12177.02008-.00586-.01526-.0116-.0297-.017-.04577a.06494.06494,0,0,1,.01849-.00531c.30054.01274.60059.02711.90052.03736.11743.00407.23706-.00987.35193-.00429.16082.00632.32025.02241.47827.03675a.41.41,0,0,1,.09521.03309l-.0086.02085c-.1164-.01141-.23273-.02286-.36823-.03565.0202.04022.03192.0658.05054.10591a2.34118,2.34118,0,0,0-.867-.0986,3.85926,3.85926,0,0,0-.85327.22354c.08368.00835.16608.01658.25873.02553-.01282.01976-.02087.03322-.0304.04907a2.79241,2.79241,0,0,0,.55646.00175,2.57444,2.57444,0,0,1,.67786.06144c.016.0036.02685.02585.03332.05188a3.34532,3.34532,0,0,0-1.3872.11437c.032.0262.05572.04435.07379.05966-.0578.01739-.12116.03693-.18219.05579l.00183.01747.10126.00874a.05708.05708,0,0,0,.00128.01577c-.07831.0226-.15644.04606-.23474.06947a.10174.10174,0,0,0,.13549.0747c.01423-.004.02436-.0214.04487-.03981.034-.01166.08227-.02644.12762-.04556.06567-.026.09412-.01825.12762.03947-.05566.05059-.15148-.00812-.19738.08445.04644-.005.09051-.00936.149-.016-.028.02856-.04779.04785-.06427.06487-.045-.01639-.08465-.03157-.12652-.04518a.46143.46143,0,0,0-.20545.0038,3.65538,3.65538,0,0,1-.50024.03438,3.03442,3.03442,0,0,0-.66321.03449,1.31985,1.31985,0,0,0-.16974.05094,6.14153,6.14153,0,0,1,.802.08411l-.0456.03891c.05011.01591.09308.03052.13825.04522l-.0044.02946c-.05243.00957-.10174.02179-.15289.028a.25384.25384,0,0,0-.14777.03186.83182.83182,0,0,0-.59692.13985c-.01209-.01154-.02356-.02474-.03552-.03553-.03-.0285-.05542-.03281-.09174.00852a.4589.4589,0,0,1-.093.067.52694.52694,0,0,0,.26953.01635.90589.90589,0,0,1,.20563.01023c.01953.00223.03552.02809.05768.04614-.01831.00865-.02356.014-.0282.01372a.93991.93991,0,0,0-.41766.04506c-.10584.02565-.21265.04871-.321.08334.10834-.00483.21894-.01283.32685-.01356a1.413,1.413,0,0,1,.1745.02377l-.004.02283a.21541.21541,0,0,1-.03754.00488c-.03485-.00166-.06952-.00485-.10382-.009a1.14637,1.14637,0,0,0-.33764.00942,2.579,2.579,0,0,1-.40833.01528,2.66851,2.66851,0,0,0-.30249.00853.86078.86078,0,0,0-.1842.07708.216.216,0,0,1-.06153.01642.50023.50023,0,0,0-.23694.04865c.11786.01154.23957.0225.36.03508a.25112.25112,0,0,0,.20746-.04252.06089.06089,0,0,1,.03973-.00791c.0249.00752.05628.013.069.03045.05738.07664.135.06148.225.05042a3.2554,3.2554,0,0,1,.37115-.01374c.01685-.00045.03.0203.04688.028a.0985.0985,0,0,0,.04431.018,2.97091,2.97091,0,0,1,.3045-.01011,3.298,3.298,0,0,1,.43744.06855,4.654,4.654,0,0,0-.82837.0701c.1673-.004.33442-.01052.50116-.01121a.46555.46555,0,0,1,.38269.15556c-.1463.064-.25616-.0361-.39038-.02893-.01275.07013-.06195.09393-.13037.08914-.123-.00859-.24542-.01224-.36657-.02563a.48848.48848,0,0,0-.26935.0431c.04144.01939.0794.03849.12616.06085a.161.161,0,0,1-.16992-.0037c-.06-.03892-.082-.03375-.13624.02853.04938.08436.16486.00739.23053.0532l-.00531.02034c-.05578-.00564-.11279-.00786-.16662-.01743-.05365-.00951-.09381-.00161-.11792.05119a.172.172,0,0,1-.02637.0312,2.10955,2.10955,0,0,0-.80328-.14624c-.24054-.00273-.48236.00433-.72492.01867-1.14477.06782-2.28967.23546-3.43451.3436-.41272.03812-.82373.07121-1.235.09446-.2945.01658-.77423.02513-1.06677.0097l-.0401-.0004a.829.829,0,0,0-.01374.14768,36.07933,36.07933,0,0,1-.832,4.49149c-.00769.04066-.01562.07981-.02325.11648.07824-.012.15454-.02312.23108-.03509l.00219.01095-.08221.04953.002.0067c.08661-.01869.17267-.04569.25891-.0553a1.47365,1.47365,0,0,0,.36585-.08674.89522.89522,0,0,1,.24664-.03728.32962.32962,0,0,0,.24353-.10926L17.5095,19.534c-.05719.00921-.11358.02093-.17029.02682a.68658.68658,0,0,1-.1582.00965c-.02447-.00258-.0434-.03194-.06189-.05557a.88466.88466,0,0,0-.427.05934.25707.25707,0,0,1,.16919-.10464.65286.65286,0,0,1,.29736.02494.89774.89774,0,0,0,.27191-.00074,1.09179,1.09179,0,0,0,.19867-.04063,1.49427,1.49427,0,0,1,.74561-.03205l.033.00307c.00744-.03.01538-.05675.02234-.0835a2.94827,2.94827,0,0,0,.30963-.00638.152.152,0,0,1,.14447.06212.571.571,0,0,0,.54638.21739c.1106-.00549.21961-.02344.32978-.0356l-.00074-.014-.10766-.04308.00458-.02192c.062-.00725.12341-.01624.18512-.02011a1.17959,1.17959,0,0,1,.52423.11672,1.31926,1.31926,0,0,0,.54547.07782,1.52135,1.52135,0,0,1,.18017.01588c-.09491.07266-.19232.00061-.2807.06457a.46058.46058,0,0,0,.29517.03721.26412.26412,0,0,1,.26678.07886c.02961.02607.00739.046-.02526.05276-.12677.025-.25409.04668-.38105.07325a1.87619,1.87619,0,0,0-.22339.06279.10872.10872,0,0,0-.03808.03038c.098.00111.196.00138.29461.0025.04.00114.031.01205-.01391.0312.32544.01537.646.06665.97668.09719-.02087.01262-.03845.02624-.06006.03713a.68186.68186,0,0,1-.50061.0409c-.17034-.03991-.34259-.07021-.52368-.106.00165.03153.00348.04647.00568.06724-.01886-.00948-.03339-.01879-.05109-.02832l-.03644.05033a.134.134,0,0,0-.09686-.053c-.07379.02623-.15936.05493-.24719.08753a.80078.80078,0,0,0,.35358.005.69755.69755,0,0,1,.36621,0c-.05609.01505-.12067.013-.1388.09433.05487-.00279.106-.00414.15967-.00945.07153-.00743.09583.00585.12067.08271-.09931.00963-.19586.0202-.2937.029-.14936.01354-.30182.01935-.45172.04356a1.82092,1.82092,0,0,0-.27924.08952l.00238.03321c.0852-.00482.16907-.01128.25342-.01455q.1386-.005.27484-.003c.02923.00039.0451.01555.05109.05068.004.02832.04834.0479.07525.07048.03986.03333.08014.06666.12543.10288-.03668.01229-.06427.02115-.10584.03471.04175.0211.06885.03536.09577.04879l-.00623.0169a.3985.3985,0,0,0-.25854-.00816A.13615.13615,0,0,1,20.647,20.911c.04926.00508.09858.00931.15528.015a.27311.27311,0,0,0-.3772-.02725c.02832.00281.05383.01281.06537.00456.02893-.02273.04944-.02458.07416-.00386.04785.03638.05236.04412.0379.10091l-.07031.00086c.01788-.01532.0318-.02586.04559-.03562l-.009-.0147-.17945.10555c.07483.01424.13672.02689.19959.03872-.03272.01419-.066.02757-.09943.04256-.02209.01166-.04272.02425-.07141.03884.02228.02635.04108.04989.06262.07614a.42955.42955,0,0,1-.27264.05193.435.435,0,0,0-.28125.067.43819.43819,0,0,0,.37463.0551.43712.43712,0,0,1,.41.02211c.00567-.026.0086-.04485.01391-.06839l-.04156-.01033-.005-.01526c.031-.01516.07032-.04621.08954-.03825.02851.011.04157.0499.06464.08293.0163-.017.03631-.03878.05878-.062a.84084.84084,0,0,0,.04541.10143.13748.13748,0,0,0,.18182.059c.03967-.01369.07922-.02993.12085-.04029a.26361.26361,0,0,1,.19629.0195.91564.91564,0,0,0,.15784.06719.42573.42573,0,0,0,.09832.011l.00788-.01592c-.024-.01821-.04535-.03707-.08258-.06694.03186.004.05468.00143.06335.01021.05676.05195.06494.05.09961-.02434a3.05405,3.05405,0,0,0,.67987-.05235,1.04784,1.04784,0,0,1,.524.02912c-.03461.00587-.05866.01082-.08277.01406a.639.639,0,0,0-.08093.0084.25961.25961,0,0,0-.05255.02773c-.20508.01531-.40735.02933-.60992.04482a.17692.17692,0,0,0-.05439.01355c-.10077.04327-.20257.08735-.30194.13242-.06048.02808-.11944.05862-.17962.08745l.004.01511.16938.01675c-.03986.06416-.05622.07044-.10529.03647-.04327-.03117-.06427.00295-.08862.02849l-.0011.02053c.09906-.003.19891.00072.297-.01063.14325-.01561.28375-.04536.42773-.06421a.71562.71562,0,0,1,.32263.0242c.00971.03864-.0097.05876-.04687.06117-.092.00673-.18665.00264-.27777.01525a2.482,2.482,0,0,0-.62879.17317l.07215.06448-.15088.06787c.03692.00921.05841.014.07855.01879l.002.01246a.61665.61665,0,0,0-.0888.02433c-.02155.01-.05084.027-.05457.04329-.00824.03737.03949.08859.06793.07826.01294-.00409.021-.02907.0304-.04336a.402.402,0,0,0,.09393-.0388c.06-.04041.06769-.0415.09137.01708-.05383.03092-.109.061-.16095.09115l-.00567.00375c-.12555-.02361-.23944.06907-.3642.06374a3.67909,3.67909,0,0,0-.39148.01058.61607.61607,0,0,0-.32519.10769c.19061.03807.3952-.02765.57659.06681-.01995.00439-.04095.00871-.06024.0139l.00605.01862c.065.007.09722.03732.082.1015-.09748.00888-.19318.0179-.28913.02766a.46885.46885,0,0,0-.30249.163c-.01367-.01338-.0238-.024-.03552-.03477-.033-.032-.06274-.034-.09375.01417a.40942.40942,0,0,1-.06006.06015.24748.24748,0,0,0,.17212.0153.648.648,0,0,1,.169-.00137c.02014.00229.0365.02982.04944.05133a2.26622,2.26622,0,0,0-.57935.14531c.12653.01212.2652-.05908.3772.02638l-.00348.0196c-.05072-.0052-.101-.00871-.152-.01477a.31354.31354,0,0,0-.169.01958.57306.57306,0,0,1-.32263.00385.30767.30767,0,0,0-.23584.03388c-.01538.01125-.02221.03477-.03955.06245a.30343.30343,0,0,0-.21533.0543c.0802.00727.15771.01357.23657.0231a.14369.14369,0,0,0,.1333-.03442.04533.04533,0,0,1,.07325-.00316.07626.07626,0,0,1,.026.02253c.0393.07624.113.069.18969.06191.083-.00738.168-.00964.25928-.01482a.42474.42474,0,0,1-.02161.04551,1.10946,1.10946,0,0,1,.60022.06181c-.22589.06185-.44439-.03683-.65991.072.10785-.00735.216-.01555.3241-.02194a.39139.39139,0,0,1,.31659.09892m-5.47467.93991a.47342.47342,0,0,0,.03918-.09793c.00916-.03655-.00879.0101-.03918.09793" style="fill: #ff5000;fill-rule: evenodd"/>
    <path d="M60.5922,10.233c-.06378.04589-.05011.10961-.06.16756.02117-.05558.04-.11116.06-.16756" style="fill: #ff5000"/>
    <path d="M60.8101,11.07313a.21846.21846,0,0,0-.07251.19964c.02667-.07157.04938-.136.07251-.19964" style="fill: #ff5000"/>
    <path d="M57.33567,10.717l-.02581-.00585c-.03052.09112-.05945.18159-.09046.27275l.0282.00611c.02856-.09133.05847-.1826.08807-.273" style="fill: #ff5000"/>
    <path d="M61.26731,10.0523c-.01165.07357-.02972.14743-.046.2247a.51482.51482,0,0,0,.13422-.26968c-.05481-.01955-.07983-.00722-.08826.045" style="fill: #ff5000"/>
    <path d="M61.15745,10.621a1.03053,1.03053,0,0,0-.15326.50282c.04981-.16577.1-.33226.15326-.50282" style="fill: #ff5000"/>
    <path d="M60.28239,11.1345a.67715.67715,0,0,0,.054-.17126.85209.85209,0,0,1,.0769-.31339.79684.79684,0,0,0,.04047-.1854l-.01557-.0061c-.00995.02244-.021.044-.02948.06653a1.89927,1.89927,0,0,1-.0769.23487.40994.40994,0,0,0-.06446.29519c-.011-.014-.02105-.02862-.03277-.046-.01428.00893-.03113.01845-.06372.03851.0802-.00017.103.03281.11151.08708" style="fill: #ff5000"/>
    <g>
      <path d="M57.991,31.90138a.44615.44615,0,0,0-.19812.0065c.1.02545.05182.05583.05292.08456a.21049.21049,0,0,1-.063-.01c.04614.02912.00757.0742-.03278.09949-.14966-.0239-.10242-.08288-.15527-.16755-.59015.13446-.1402.23478-.62732.45219a840.21769,840.21769,0,0,0-.58539.24939,2.05424,2.05424,0,0,1,.54144-.10409c.19147-.1789.48859-.18867.72968-.3692.00323.08621-.09332.14689-.19043.20767.19586-.064.24029-.20931.43487-.302a.17043.17043,0,0,0,.10126.0542C58.04576,32.04339,57.94383,31.96047,57.991,31.90138Z" style="fill: #ff5000"/>
      <path d="M52.00419,31.02084c-.04907-.06013-.08166-.16192-.13092-.22229-.01758.04144.06018.0943.04285.1357a1.35032,1.35032,0,0,1-.44239-.72782c-.03234-.1018-.07507-.23731-.09649-.30516a1.75411,1.75411,0,0,1,.04486.42932c.18079.28289.17151.54277.32373.83292a.59455.59455,0,0,1-.18018-.2826c.02539.177.19092.31654.25525.52011.0105.03392-.05542.015-.04522.04887.0495.06043.16107.03052.21057.09083.028-.00747.00677-.07539.0238-.11674-.0448.0489-.05542.015-.09466-.01142-.01038-.03393-.01075-.03393.00659-.0754-.01709.04146-.06678-.01893-.11609-.07932.0625-.09031.12268.00391.20654-.01849C52.02964,31.19794,51.92015,31.04334,52.00419,31.02084Z" style="fill: #ff5000"/>
      <path d="M52.45683,31.86039a2.54421,2.54421,0,0,1,.17175.45681l.01831.02233a2.15154,2.15154,0,0,0-.32464-.79643A.98782.98782,0,0,1,52.45683,31.86039Z" style="fill: #ff5000"/>
      <path d="M59.43864,25.95126a3.02834,3.02834,0,0,1,.06317-.64034c-.08539.33831-.07611.70929-.15619,1.12321-.01324.069-.03766-.01321-.0509.05573-.00824.1446.06683.17111.05932.3157.01856.00659.04505-.1314.07746-.19375-.05072.05574-.03717-.01325-.043-.08884a.325.325,0,0,1,.04541-.1314c-.03272.06238-.02405-.08218-.01648-.22678.08282-.1181.06146.09547.1181.11537.03174-.06238.061-.42056.11737-.4007.00775-.14418.04731-.35108.05548-.49574-.032.06241-.02124.21357-.05328.276a7.0457,7.0457,0,0,1,.17432-1.63305c.03949-.20692.09308-.48244.11956-.62039-.08477.33793-.12469.54488-.21569.80756C59.66966,24.85446,59.52073,25.31759,59.43864,25.95126Z" style="fill: #ff5000"/>
      <path d="M48.48509,22.573a.48844.48844,0,0,1-.01282.06349c-.01892.06591-.03918.131-.058.19694a.30238.30238,0,0,0-.018.10174c-.00281-.00733-.00415-.01547-.00787-.02363-.00781.04968-.01819.09932-.02124.14978a.32233.32233,0,0,1-.04468.05859.07921.07921,0,0,0-.02545.04639c-.00177.11151-.0008.223-.0022.3353a.17494.17494,0,0,0,.06665.16357,1.23908,1.23908,0,0,1,.08276-.44434.77932.77932,0,0,0,.02179-.105c.00507-.03419-.01178-.04883-.04156-.03745.02539-.16684.0498-.3361.07526-.50539Z" style="fill: #ff5000"/>
      <path d="M48.60026,22.49934c.03613.17466.07373.349.11078.52246l.02618-.00713c-.0072-.08087-.01464-.1605-.02252-.24765.02844.00634.047.0111.06519.0146l.02417-.01809c-.054-.09448-.11029-.18742-.16425-.28194C48.62583,22.48846,48.61351,22.49376,48.60026,22.49934Z" style="fill: #ff5000"/>
      <path d="M44.78526,12.10812l-.00257.01121.0423.00539A.15534.15534,0,0,0,44.78526,12.10812Z" style="fill: #ff5000"/>
      <path d="M46.05967,32.46967c-.0003.011.01007-.01672,0,0Z" style="fill: #ff5000"/>
      <path d="M41.34873,33.60953c-.0072.02247.01832.05208.0293.0789.023-.01506.05756-.023.06922-.04525a.13976.13976,0,0,0-.02106-.18511A1.13494,1.13494,0,0,0,41.34873,33.60953Z" style="fill: #ff5000"/>
      <path d="M45.6323,32.957c-.00677.01983.01654.046.026.06971.02032-.01328.05035-.02035.06115-.04a.12178.12178,0,0,0-.01867-.16354A1.00809,1.00809,0,0,0,45.6323,32.957Z" style="fill: #ff5000"/>
      <path d="M46.27043,32.24862c-.00257.00914.0072.02121.0119.03214.00921-.00611.02338-.00938.0282-.01843a.05579.05579,0,0,0-.00861-.07541A.47528.47528,0,0,0,46.27043,32.24862Z" style="fill: #ff5000"/>
      <path d="M61.90232,10.12163c-.028.03928-.04791.06349-.065.08869a1.57893,1.57893,0,0,0-.1983.49236c-.06537.26371-.12543.52877-.1908.79248-.01867.07634-.0459.15286-.07086.22874a12.66882,12.66882,0,0,1,.31018-1.53638.37568.37568,0,0,0-.02454.03874c-.06451.18787-.14031.37409-.19024.56469-.06873.2734-.1178.54994-.1756.82418-.00732.03-.003.07406-.05951.04285-.05878.28739-.11566.56828-.175.84983-.063.10871-.12585.2174-.19354.325a.09028.09028,0,0,0-.0163.09624.22935.22935,0,0,1,.01374.11994c-.01288.084-.29132,1.29632-.43305,1.917l-.00128.00076c-.00439-.102-.00842-.19512-.01263-.27121-.00519-.12341-.01081-.241-.01667-.35625.14716-.68907.3537-1.55321.38837-1.67379.05255-.1829.11053-.3647.15454-.54819.061-.24593.02155-.49472.09082-.74669-.11578.22724-.06134.47543-.17523.68626.0069-.08206-.03668.05356-.09723.25907.01721-.15725.03577-.33354.05365-.53455-.05554-.08315-.205.08723-.336.25645.01276-.0437.02484-.08747.04028-.13186a6.71941,6.71941,0,0,0,.24793-.93385c.02368-.13783.03589-.2757.05218-.41415-.11792.49626-.20666.99376-.37005,1.48269L60.43052,12.04c.01984-.14973.03644-.29886.057-.45928-.0838.0734-.08673.17063-.14118.26593.00513-.04508.00977-.072.01337-.09819a1.48977,1.48977,0,0,0-.08093.16283c-.01752-.277-.02924-.4619-.03662-.57227.02758-.13855.05359-.27705.07415-.41512a1.24069,1.24069,0,0,1,.1-.42408c.00488-.00872.004-.01945.00842-.02908.02143-.05627.04645-.11234.06867-.16861a.06185.06185,0,0,0,.00073-.05119.05655.05655,0,0,0-.04962-.02159c-.01331.004-.02551.0304-.0304.04827-.014.0617-.02661.12283-.04156.20016-.04877-.12318.00775-.23642.01684-.35632a.1917.1917,0,0,0-.07837.18527c.00733.08219.01075.16424.01465.24127a.1026.1026,0,0,1,.02033.04111.24131.24131,0,0,1-.14521.22345c.00263-.108.00507-.2143.00715-.32154-.056.04986.003.12987-.07947.17362a.87812.87812,0,0,1,.01922-.41645c-.03289.0531-.06732.10851-.10015.16312l-.02051-.00721c.00335-.022.0047-.045.00677-.06637.04346-.05149.08679-.103.12873-.15372-.00147.005.00341.006.002.01171a.12531.12531,0,0,0,.00787-.02508c.209-.25289.37513-.46508.30616-.40379-.00177-.0356-.114.08123-.2602.24931.03125-.11756.062-.236.08423-.35487A.47132.47132,0,0,1,60.347,9.496c.00573-.00951-.11414.15875-.27393.38293-.03809-.05382-.25818.15623-.46729.35621a.49488.49488,0,0,0-.2774-.21668,3.16318,3.16318,0,0,1,.14447-.38795.49675.49675,0,0,0,.02161-.09751l-.03022.00945c-.05737.05709-.05969.14775-.14227.18821l-.00549.01695c-.02307.07843-.04944.15754-.074.23672-.163-.07-.27288-.16186-.09777-.58646-.04706.02393-.076.03764-.11646.05793a1.92524,1.92524,0,0,0,.1864-.60792.58464.58464,0,0,0-.1051.16768c-.07959.23806-.162.47668-.22284.71847-.08539.33679-.14935.67575-.22705,1.01382a14.52582,14.52582,0,0,1-.63757,1.68448c-.13477.23335-.12879.06273-.134-.05975.05731-.24126.13361-.48118.17249-.727a.35582.35582,0,0,0-.13825.20755c-.02887.13172-.05438.26284-.08313.39543a.32245.32245,0,0,1-.01373.03949l-.01318-.00092a12.55724,12.55724,0,0,0,.29351-1.5598c.03577-.17011.06446-.34067.0879-.51164.00885-.0745.01263-.14941.01995-.224l-.0238-.00243a18.87558,18.87558,0,0,0-.722,2.43324,3.01247,3.01247,0,0,1-.21314.4161c.00726-.07629.01459-.15252.02747-.22852.04956-.28959.11889-.57709.17486-.86633.01551-.08308.02222-.16682.03131-.25038l-.02307-.00663a1.15332,1.15332,0,0,0-.06225.10547,3.539,3.539,0,0,0-.24134.7378,1.9516,1.9516,0,0,0-.00348-.31314.43615.43615,0,0,0,.067-.11756c.02655-.13275.04144-.26537.06189-.39862l-.02454-.0025c-.03546.16845-.07061.33687-.1051.51361-.00677-.02271-.01495-.03074-.02856-.01354a.72381.72381,0,0,0-.16571.24031c-.2201.88051-.321,1.66161-.5008,2.54657-.04193.21341-.08221.42776-.12213.64134a.35025.35025,0,0,1-.0141.037.80773.80773,0,0,0-.0542.20579q-.15591,1.17832-.31182,2.35666l-.00458.02045c-.10511.63035-.19312,1.06381-.2862,1.53386-.05487.2769-.23089.87862-.25543,1.01943a1.54472,1.54472,0,0,1-.04065.336,2.10935,2.10935,0,0,0-.03827.32964q-.01593.18395-.03167.3679l-.07837-.0883c-.01746.085-.03907.19548-.06281.33119a4.33845,4.33845,0,0,1-.21936.65788c.00446.07962.01581.26689.02271.42939l.00787.19162-.1897-.02819a.04622.04622,0,0,0-.02545.00247l-.1485.06011-.07031-.1783a.56385.56385,0,0,1-.10693-.31647l-.0022-.022.00384-.02169a1.40263,1.40263,0,0,0-.00732-.21083l-.03644-.09232a4.36889,4.36889,0,0,1-.18933-.53365.1984.1984,0,0,0-.05933-.07667A.555.555,0,0,1,53.957,21.432l-.007-.03083c-.05871-.46935-1.09375-3.27731-1.65-4.78593q-.111-.30315-.22174-.6063c-.02472-.10642-.04559-.22941-.06537-.34249-.01727-.10053-.04083-.23561-.056-.28208l-.03882-.04369.01337-.07544-.00055-.01456a.37026.37026,0,0,1,.05072-.20772,1.59531,1.59531,0,0,1-.238-.83447l.05457-.30764a2.95607,2.95607,0,0,0-.24939-.40694,3.16041,3.16041,0,0,1-.338-.58507l-.04651-.10488.0335-.03036-.00311-.00557c-.03711-.0612-.07483-.11742-.11206-.17179a1.86261,1.86261,0,0,1-.21094-.36929.61669.61669,0,0,1-.106-.10085.24608.24608,0,0,0-.065-.06041l-.10949-.05174q.073-.411.14575-.82192l.13019.14731a3.26694,3.26694,0,0,0,.01153-.37425c-.00043-.02339-.00043-.04678-.00036-.06971a.291.291,0,0,1-.225-.09836l-.03754-.04244-.04229.00294-.04944-.04337c-.1352-.11834-.24115-.20805-.32593-.27806l-.00751.02138c-.03979.09852-.13977.14236-.29626.13058l-.04175-.0031-.03461-.02339a.9311.9311,0,0,0-.13531-.0807l-.05146.29-.10144-.30191a.38574.38574,0,0,0-.07379.03067l-.16461.08582-.04907-.14623-.00183-.00031c-.01325-.0031-.02985-.00682-.04743-.01193a.42314.42314,0,0,1-.2622.11556.26276.26276,0,0,0-.06336.01332.043.043,0,0,0-.00952.01689l-.06409.15227-.14959-.07017a.20781.20781,0,0,1-.11811-.13647c-.02636.00107-.051.00015-.07251-.00078a.34737.34737,0,0,0-.14575.01332l-.10235.03873-.03974-.04461-.00842.01332q-.13971.21307-.27924.42614-.00585-.25465-.0119-.50933L47.866,10.4519l-.00623-.00124a.3448.3448,0,0,1-.24371-.15242.75456.75456,0,0,1-.46436-.0378c-.02356-.00821-.047-.01626-.07049-.02293-.10944-.02-.22858-.01115-.55207.32623l-.04248.04431-.06335.00433a.8808.8808,0,0,1-.14264.17629.75266.75266,0,0,1-.297.26473.8644.8644,0,0,1-.5094.13321,1.21379,1.21379,0,0,1-.22265.463c-.01306.018-.02515.03469-.03662.05142l-.02619.03052a.836.836,0,0,0-.273.52048.22011.22011,0,0,1-.05566.11959,11.01518,11.01518,0,0,1-.25086,1.33868c-.07952.34172-.1607.69351-.221,1.09208l.11608-.0079-.03533.19983c-.01886.10656-.04914.29153-.09064.53845-.17182,1.03213-.52594,3.1664-.94831,5.17536a.29037.29037,0,0,1,.02015.06444,1.33036,1.33036,0,0,1-.104.58415c-.00781.10827-.04736.33289-.14337.856A5.19131,5.19131,0,0,1,43,23.13457c-.10944.70931-.17352,1.08262-.23529,1.44371-.06671.38634-.12933.75145-.2428,1.49483l.00659.03749a.28859.28859,0,0,1-.02032.14808.24245.24245,0,0,1-.02106.04338l-.0368.24242a.31866.31866,0,0,1-.00788.08148l-.00439.0189a.378.378,0,0,1,.01337.22694.38445.38445,0,0,1-.0738.15118l-.0368.24088.00806.03129a.29266.29266,0,0,1,.04925.15041l.00147.04632a.32981.32981,0,0,1-.093.23391l-.04285.046-.013.086a.29113.29113,0,0,1-.00769.108.22015.22015,0,0,1-.01593.04338c-.04883.2641-.43408,2.213-.61212,3.00019.00006,0-.14325.41877-.0694.30693.035.10447-.12152.38261-.12487.70373a1.058,1.058,0,0,0,.12139-.3827c.07648.47588-.00775-.15562-.06829.49036-.07373.11183-.01954.10821.035.10448-.09009.51054-.22424,1.03471-.27777,1.3366.34772-.45133.31708-.75556.50555-1.51683-.05157.59151-.1037.38571-.16424,1.03135.22418-.65672.21209-.39315.24426-.8766.11786-.06158.03522.10457.02545.1587a13.62217,13.62217,0,0,0,.29791-1.40847c.03876-.05871.01691.18885.00037.41406a1.9341,1.9341,0,0,0,.089-.46224c.07971.155-.10938.64718-.10309.91417a.3752.3752,0,0,0,.03571-.072c.09643.242-.1449.85632-.22376,1.32381l.00769-.09224a.55134.55134,0,0,0-.01556.14429,1.207,1.207,0,0,0-.0152.22756l.01849-.22345a.9162.9162,0,0,0,.09027-.28766c-.00726.06367-.00335.09845.04157-.03362-.06751.379.06311.05345.04962.4287-.00922.0542-.17889.70748-.067.379.13752-.27494.04645.04747.07966-.04988-.00147.01882-.00367.03749-.004.05832-.01935.10827-.08832.66958-.005.50352.06427-.44072.04621-.30819.16333-.87917a.17347.17347,0,0,0-.02581-.026c.01062-.03588.02014-.07142.02838-.10386.00518.02261.00848.04167.0119.05855.014-.06975.13733-.559.15527-.64936a8.10023,8.10023,0,0,1-.04724,1.29694c.04419.05044.16882-1.49275.16553-1.17162.12164-.38268.09357.40816.20874-.24142.10187.63478-.16083.75655-.12909,1.18192a2.08456,2.08456,0,0,1-.15033.545c.02527.15872.08325-.16605.10236-.27441.07031.20921.02539.15876.03186.42568.12768-.11563.02233-.42932.12487-.70373-.18548.44048-.08966-.10054.02875-.162.04444.05036.016.21246-.02252.429.10815-.00733.09241-.22029.10236-.27433.05065.31739-.04883-.40855-.00715-.2281.07349-.11493.0719.28347.09082.44109-.017.08491-.03686.1285-.06848.2906-.05584.28431.03546.10464.05439-.00363a3.04116,3.04116,0,0,0,.29187-.91062c.09588-.5414.01336.49508.11883-.10014.09845.04646-.15839.8097-.12286.91425.04754-.07233.1297.007.18823-.043.0033.04185.00708.08.01318.11324-.09344.78435.17072.20818.22174-.12842.0152-.051.0307-.10944.04706-.1769.04132.09984.09564.17628.13458.08349.18305-.46339-.06317-.34783.16828-.56919a1.462,1.462,0,0,0,.02069.23421,2.15208,2.15208,0,0,1,.0249-.2765l.00788-.00728-.00623-.00511c.02509-.19542.05341-.40136.019-.37015-.10852.00736.10181-.27433-.035-.10456.34222-.71823.13544-.50661.40723-1.43395.02185.4795-.32825,1.19956-.3252,1.78768.05414-.00372.03851-.21657.0575-.32484.023.113.041.15272.05291.16219a1.737,1.737,0,0,0-.04779.21617c.08289-.16615-.0498.4801.09705.25621.019-.10827-.045-.0505-.02545-.15878.02868-.1621.0769-.43274.11517-.64928.08948.10086-.01282.37516-.061.64556.163-.01106.17779-.1082.26092-.274l-.15692.00023a2.61792,2.61792,0,0,0-.00677.323c-.20813.27735-.08887.00961-.21039.39106.10882-.00743.137-.16986.16626-.33227.05468-.00374-.03858.21656-.05768.32484.2063-.34922.11658-.08382.21-.4538.00055.01752.00324.05245.01062.11789-.02948.16237.10236-.27444.14081-.4909.05444-.00371.04455.05041.035.10456a2.95526,2.95526,0,0,0,.23438-.82246c.051.31746.02752-.05071-.05878.43613-.10516.59553-.13971,1.28849-.063.85538-.05133.59189.04914-.23721-.0022.35419.13788-.16977.0163-.02975.13843-.41228.04474.05042.00666.267-.02252.42932a7.19477,7.19477,0,0,0,.28345-1.18711c.11224.05656-.10944.26109.11627.14375-.11511.41668-.16711.50084-.18768.49972.00531.05183.00995.15955.00769.36906.01562.21293.1759-.38625.17578-.38625.02307-.102.043-.19147.06225-.27457a.31407.31407,0,0,0,.02015-.0886c.01117-.04842.02154-.09357.03076-.13516-.01026.04393-.01978.08519-.02857.12091.04157-.27836.22821-1.28284.23566-1.47508a4.7096,4.7096,0,0,1-.04523.56385,2.59558,2.59558,0,0,1-.03113.81712c.0542-.00364.33387-.05327.29535.16327.14789-.33337.19428-.42563.20746-.44672V32.469a.894.894,0,0,1,.05255-.25126l.048-.11509a1.96667,1.96667,0,0,0,.16443-.57083c.0368-.19037.09405-.48422.19921-.97977a1.26888,1.26888,0,0,0,.05127-.219,6.48,6.48,0,0,1,.19446-.81867,5.126,5.126,0,0,1,.143-.834c.00708-.02883.01343-.05778.02-.0869l-.04065.03671.07031-.44349c.18256-1.15621.99579-4.56442,1.21893-5.52561a.65758.65758,0,0,1,.05145-.12841.69314.69314,0,0,0,.08222-.24088l-.03076-.54511q.159.22191.318.4438a9.82749,9.82749,0,0,1,.56067.873c.24457.42288,1.101,2.37529,1.87061,4.26313,1.26464,3.1026,1.23181,3.91939,1.19842,4.1121a.18552.18552,0,0,1,.12836-.10518.17881.17881,0,0,1,.17322.06025l.0509.05732-.01337.07559a.09226.09226,0,0,0-.0011.04616.07716.07716,0,0,0,.02839.0045l.19482-.00573-.02838.19177a.04935.04935,0,0,0,.00751.02.32478.32478,0,0,1,.03442.21423l-.02948.16513.00366.00589.13129.04446.00842.00294.02344.00805-.00018.00031a.42481.42481,0,0,1,.08.03857,1.30515,1.30515,0,0,1,.17084.1295c.04578.041.09058.08381.13422.12764a.19538.19538,0,0,0,.02783.0203.31909.31909,0,0,1,.12726.13585.61729.61729,0,0,1,.13513.13616,1.38849,1.38849,0,0,1,.38287.06537,2.13977,2.13977,0,0,0,.24591.0584.21242.21242,0,0,1,.03772-.01146c.04566-.00974.08338-.0183.117-.026a1.92915,1.92915,0,0,1,.27173-.04724.31512.31512,0,0,1,.05786-.04772.37472.37472,0,0,1,.25744-.04523l.05219.00744.03735.03718a.06384.06384,0,0,0,.02545.01657l.20563-.00077.00275.00077.19757-.00124c.09863-.00216.19678-.00524.295-.01022l.08148-.18124.08881.17163.002-.00015c.04328-.00327.08649-.00666.12982-.01069l.06373-.03021.06683-.08271-.193-.02371.12323-.09061-.07453-.09527.22632-.06893.0445-.01054.3446-.08535-.0022-.006-.11957.00078.45612-.19286.02271-.06026-.10218-.08318.13312-.07389-.0434-.0282.14246-.02679.16974-.23159-.22046-.18526.29388.08489q.13065-.17814.2613-.35629-.05952.19868-.11921.39733l.18219.05283a.61081.61081,0,0,0,.28968-.14035.25066.25066,0,0,0,.07361-.13043l.008-.03438.022-.02773a.09132.09132,0,0,0,.01172-.08443l-.07361-.14948.18238-.07947.03918-.01734c.02277-.03206.04621-.06369.07013-.09341a.59108.59108,0,0,1,.10236-.09992c.0039-.01687.00854-.03377.01391-.051l-.01117-.00449.04139-.0931c-.00995-.017-.01728-.03191-.02472-.04508l-.01538-.02757-.05091-.05731.05567-.31368a13.00177,13.00177,0,0,1,.36511-1.9515,2.95977,2.95977,0,0,1,.37866-.97156c.00409-.02664.00726-.05266.00989-.07807l-.1344.00914-.01355-.15521a17.42713,17.42713,0,0,1,.52332-3.49279c.132-.67926.28656-1.47331.46014-2.40149.02179-.11649.14032-.64689.264-1.20857.11535-.52063.23474-1.05893.25543-1.16844a1.17119,1.17119,0,0,0-.02509-.34606,1.34246,1.34246,0,0,1-.0238-.45573c.08484-.44639.16467-.86209.24042-1.25477l.0249.00531c.14526-.81879.68359-3.27056.83038-4.08922.01154-.06527.00556-.10777-.06976-.1147.10919-.11538.13458-.21524.1192-.46233a.43012.43012,0,0,0-.0368.1081c-.01361.06506-.01642.13091-.03626.194a.55418.55418,0,0,1-.08459.122.39421.39421,0,0,1-.01721-.03917.28557.28557,0,0,1,.05639-.19921.81564.81564,0,0,0,.10236-.27771l-.02509-.00918c-.04382.077-.088.15484-.12982.22627a.80966.80966,0,0,1,.12341-.56031.54179.54179,0,0,0,.11719-.39891c-.02325-.13782.06134-.27143-.06665-.29692.04938-.12445.10138-.24471.14575-.36628A1.03383,1.03383,0,0,0,61.90232,10.12163Zm-18.249,23.667a.08107.08107,0,0,0-.02289-.05151.53756.53756,0,0,1,.024-.10533,1.03547,1.03547,0,0,0,.0379.11145A.29309.29309,0,0,0,43.6533,33.78866Zm.85492-.58872c.01038-.04046.02234-.08582.03717-.14212C44.56126,33.38892,44.52061,33.21635,44.50822,33.19994Zm.0227-.44961a.71279.71279,0,0,1,.04651-.176C44.60459,32.81734,44.58445,32.723,44.53092,32.75033Zm.71119-.26248a.39072.39072,0,0,0-.02546.03965c.01484-.06576.03095-.13569.05072-.21408C45.25132,32.40194,45.24449,32.45586,45.24211,32.48785Zm10.23761-9.57666c.12347-.50148-.01288-1.23842.63171-1.269C55.85594,21.90211,55.60911,22.905,55.47972,22.91119Zm2.10351-10.43205c.03748-.108.07446-.21683.10987-.32591C57.64158,12.37677,57.59886,12.51827,57.58323,12.47914Zm1.50037-1.947a.20986.20986,0,0,0-.00531.05329c-.01459-.01425-.0307-.02932-.04688-.04615.02185-.02156.04468-.04237.06812-.063C59.09385,10.49492,59.08787,10.5135,59.0836,10.53218Zm.07873.131c-.00512-.00364-.0155-.01263-.02838-.02423a.64818.64818,0,0,0,.20362-.1105.4871.4871,0,0,0-.06482.19948C59.23661,10.70811,59.1995,10.68639,59.16233,10.6632Zm.15766.09031-.00074-.00006.00037-.00247a.22374.22374,0,0,1,.02069-.17686.16285.16285,0,0,0,.00714-.054c.03681-.02544.075-.05336.115-.08194-.04461.091-.09222.181-.13549.27209A.09805.09805,0,0,0,59.32,10.75351Zm.14044-.01907c-.01758.02439-.03272.04555-.04871.06682-.02142-.01066-.04425-.02295-.06573-.03437.03131-.06717.02337-.14865.09741-.20377a.21747.21747,0,0,1,.01062.02965A.37625.37625,0,0,1,59.46043,10.73444Zm.03168-.39246c-.17731.16512-.31879.2808-.28766.15077.01117-.04875.02215-.09746.03442-.14624.14942-.13481.26172-.21455.23071-.08376-.00561.02025-.01257.04123-.019.06389l.04541-.001Zm.1441-.02962a.42952.42952,0,0,1,.19354-.09128.35925.35925,0,0,0-.0249.03622l-.00073-.00082-.00348.00554c-.04462.06372-.08991.12663-.134.18878A.59565.59565,0,0,0,59.63621,10.31236Zm.13074.40555-.02362.00162-.0055-.04412.05823-.06451C59.7863,10.64654,59.77568,10.68222,59.767,10.71791Zm.06207-.231c-.033.03978-.063.07727-.09119.11335l.00019-.00161a.515.515,0,0,1,.06775-.13071l.01776-.03845a.3569.3569,0,0,1,.02636-.02619C59.84269,10.43089,59.837,10.45931,59.829,10.48692Zm.312,1.85405a.34391.34391,0,0,1-.04083-.21671c.0188-.11429.036-.23031.05658-.34449.02234-.1355.05127-.26969.07892-.40485.00708.13182.019.32914.03827.54926A2.5812,2.5812,0,0,0,60.141,12.341Zm.19519.65773a2.13966,2.13966,0,0,1,.01319-.3319,3.9148,3.9148,0,0,0,.08844.50248.91471.91471,0,0,1-.07929.24714C60.35087,13.26886,60.3433,13.12874,60.33622,12.9987Z" style="fill: #ff5000"/>
    </g>
  </g>
</svg>
