<svg width="16" height="15" viewBox="0 0 16 15" fill="none" xmlns="http://www.w3.org/2000/svg">
<path d="M2.63833 15H13.3617C15.0871 15 16 14.0561 16 12.3109V2.68112C16 0.936013 15.0871 0 13.3617 0H2.63833C0.920727 0 3.05176e-05 0.936013 3.05176e-05 2.68112V12.3109C3.05176e-05 14.064 0.920727 15 2.63833 15ZM2.7157 13.1835C2.09674 13.1835 1.77179 12.8662 1.77179 12.2078V5.03702C1.77179 4.3707 2.09674 4.06134 2.7157 4.06134H13.2844C13.8956 4.06134 14.2283 4.3707 14.2283 5.03702V12.2078C14.2283 12.8662 13.8956 13.1835 13.2844 13.1835H2.7157ZM6.53001 6.71074H6.97875C7.26502 6.71074 7.35786 6.62348 7.35786 6.33792V5.86991C7.35786 5.58435 7.26502 5.49709 6.97875 5.49709H6.53001C6.24374 5.49709 6.1509 5.58435 6.1509 5.86991V6.33792C6.1509 6.62348 6.24374 6.71074 6.53001 6.71074ZM9.02131 6.71074H9.47779C9.75632 6.71074 9.84916 6.62348 9.84916 6.33792V5.86991C9.84916 5.58435 9.75632 5.49709 9.47779 5.49709H9.02131C8.74278 5.49709 8.6422 5.58435 8.6422 5.86991V6.33792C8.6422 6.62348 8.74278 6.71074 9.02131 6.71074ZM11.5126 6.71074H11.9691C12.2476 6.71074 12.3405 6.62348 12.3405 6.33792V5.86991C12.3405 5.58435 12.2476 5.49709 11.9691 5.49709H11.5126C11.2341 5.49709 11.1412 5.58435 11.1412 5.86991V6.33792C11.1412 6.62348 11.2341 6.71074 11.5126 6.71074ZM4.03098 9.22528H4.48746C4.76599 9.22528 4.86657 9.13802 4.86657 8.85246V8.38445C4.86657 8.09889 4.76599 8.01163 4.48746 8.01163H4.03098C3.75245 8.01163 3.6596 8.09889 3.6596 8.38445V8.85246C3.6596 9.13802 3.75245 9.22528 4.03098 9.22528ZM6.53001 9.22528H6.97875C7.26502 9.22528 7.35786 9.13802 7.35786 8.85246V8.38445C7.35786 8.09889 7.26502 8.01163 6.97875 8.01163H6.53001C6.24374 8.01163 6.1509 8.09889 6.1509 8.38445V8.85246C6.1509 9.13802 6.24374 9.22528 6.53001 9.22528ZM9.02131 9.22528H9.47779C9.75632 9.22528 9.84916 9.13802 9.84916 8.85246V8.38445C9.84916 8.09889 9.75632 8.01163 9.47779 8.01163H9.02131C8.74278 8.01163 8.6422 8.09889 8.6422 8.38445V8.85246C8.6422 9.13802 8.74278 9.22528 9.02131 9.22528ZM11.5126 9.22528H11.9691C12.2476 9.22528 12.3405 9.13802 12.3405 8.85246V8.38445C12.3405 8.09889 12.2476 8.01163 11.9691 8.01163H11.5126C11.2341 8.01163 11.1412 8.09889 11.1412 8.38445V8.85246C11.1412 9.13802 11.2341 9.22528 11.5126 9.22528ZM4.03098 11.7478H4.48746C4.76599 11.7478 4.86657 11.6526 4.86657 11.367V10.9069C4.86657 10.6214 4.76599 10.5262 4.48746 10.5262H4.03098C3.75245 10.5262 3.6596 10.6214 3.6596 10.9069V11.367C3.6596 11.6526 3.75245 11.7478 4.03098 11.7478ZM6.53001 11.7478H6.97875C7.26502 11.7478 7.35786 11.6526 7.35786 11.367V10.9069C7.35786 10.6214 7.26502 10.5262 6.97875 10.5262H6.53001C6.24374 10.5262 6.1509 10.6214 6.1509 10.9069V11.367C6.1509 11.6526 6.24374 11.7478 6.53001 11.7478ZM9.02131 11.7478H9.47779C9.75632 11.7478 9.84916 11.6526 9.84916 11.367V10.9069C9.84916 10.6214 9.75632 10.5262 9.47779 10.5262H9.02131C8.74278 10.5262 8.6422 10.6214 8.6422 10.9069V11.367C8.6422 11.6526 8.74278 11.7478 9.02131 11.7478Z" fill="#555770"/>
</svg>
