<svg width="132" height="36" viewBox="0 0 132 36" fill="none" xmlns="http://www.w3.org/2000/svg">
<path d="M9.182 18.2729C9.182 17.9795 9.08854 17.7565 8.90163 17.6039C8.71472 17.4513 8.47524 17.3751 8.18319 17.3751C7.77433 17.3751 7.38298 17.4689 7.00916 17.6567C6.64702 17.8445 6.32577 18.1203 6.0454 18.4841C5.76503 18.8479 5.54308 19.2998 5.37953 19.8396C5.21598 20.3677 5.13421 20.9839 5.13421 21.688C5.13421 22.3687 5.18094 22.932 5.27439 23.378C5.37953 23.824 5.51387 24.1819 5.67742 24.4518C5.85265 24.71 6.05124 24.8919 6.2732 24.9976C6.49515 25.1032 6.72879 25.156 6.97411 25.156C7.27784 25.156 7.56405 25.0797 7.83274 24.9271C8.10142 24.7628 8.33506 24.5575 8.53365 24.311C8.73224 24.0645 8.88995 23.7888 9.00677 23.4836C9.12359 23.1785 9.182 22.8734 9.182 22.5682V18.2729ZM6.39586 10.5623C5.99867 10.5623 5.63069 10.6093 5.29192 10.7032C4.95314 10.7971 4.66109 10.9144 4.41577 11.0553C4.17045 11.1961 3.9777 11.3545 3.83751 11.5306C3.69733 11.6949 3.62724 11.8533 3.62724 12.0059C3.62724 12.1819 3.71485 12.311 3.89008 12.3932C4.07699 12.4636 4.28143 12.5516 4.50339 12.6572C4.72534 12.7511 4.92393 12.8919 5.09916 13.0797C5.28607 13.2557 5.37953 13.5315 5.37953 13.9071C5.37953 14.1535 5.32696 14.3824 5.22182 14.5936C5.12837 14.7932 4.99403 14.9751 4.8188 15.1394C4.65525 15.2919 4.45666 15.4152 4.22302 15.509C4.00106 15.5912 3.76742 15.6323 3.5221 15.6323C2.86791 15.6323 2.33639 15.4093 1.92752 14.9633C1.53033 14.5174 1.33174 13.9247 1.33174 13.1853C1.33174 12.4694 1.51865 11.8592 1.89247 11.3545C2.26629 10.8381 2.7511 10.4156 3.34687 10.087C3.95433 9.75844 4.63773 9.51785 5.39705 9.36528C6.15638 9.20098 6.9157 9.11883 7.67503 9.11883C8.58622 9.11883 9.45652 9.21858 10.2859 9.41809C11.1154 9.6176 11.8455 9.93447 12.4763 10.3687C13.1188 10.8029 13.627 11.3545 14.0008 12.0235C14.3863 12.6924 14.5791 13.5022 14.5791 14.4528V24.399C14.5791 24.5046 14.5849 24.622 14.5966 24.7511C14.6083 24.8802 14.6375 24.9976 14.6842 25.1032C14.7309 25.2088 14.801 25.2968 14.8945 25.3672C14.9879 25.4377 15.1223 25.4729 15.2975 25.4729C15.5078 25.4729 15.7005 25.3966 15.8757 25.244C16.0627 25.0797 16.2262 24.9154 16.3664 24.7511L16.8045 25.1208C16.6292 25.3672 16.419 25.6372 16.1736 25.9306C15.9283 26.224 15.6304 26.4998 15.28 26.7579C14.9295 27.0161 14.5206 27.2333 14.0534 27.4093C13.5861 27.5853 13.0546 27.6733 12.4588 27.6733C11.7228 27.6733 11.0686 27.4562 10.4962 27.022C9.9238 26.576 9.54998 25.8954 9.37475 24.98C9.00093 25.4846 8.60958 25.9071 8.20072 26.2474C7.80353 26.5878 7.39466 26.8636 6.97411 27.0748C6.55356 27.2861 6.12717 27.4386 5.69494 27.5325C5.27439 27.6264 4.848 27.6733 4.41577 27.6733C3.85504 27.6733 3.31183 27.5853 2.78614 27.4093C2.26045 27.2333 1.78734 26.9575 1.36679 26.5819C0.957918 26.1946 0.624983 25.6958 0.367981 25.0856C0.12266 24.4753 0 23.7301 0 22.8499C0 21.7819 0.210275 20.9076 0.630824 20.2269C1.05137 19.5462 1.60042 18.977 2.27798 18.5193C2.96721 18.0499 3.74406 17.6509 4.60852 17.3223C5.48467 16.9936 6.37833 16.6474 7.28953 16.2836C7.96708 16.0137 8.45772 15.6147 8.76145 15.0866C9.07686 14.5467 9.23457 13.9951 9.23457 13.4318C9.23457 12.5633 8.97756 11.8709 8.46356 11.3545C7.96124 10.8264 7.272 10.5623 6.39586 10.5623Z" fill="white"/>
<path d="M34.4851 24.3286C34.4851 24.4342 34.4909 24.5516 34.5026 24.6807C34.5143 24.798 34.5435 24.9154 34.5902 25.0328C34.6369 25.1384 34.707 25.2264 34.8005 25.2968C34.8939 25.3672 35.0283 25.4024 35.2035 25.4024C35.4255 25.4024 35.6241 25.3262 35.7993 25.1736C35.9745 25.0093 36.1381 24.845 36.2899 24.6807L36.7105 25.0504C36.5352 25.2968 36.3133 25.5726 36.0446 25.8778C35.7876 26.1712 35.4722 26.4528 35.0984 26.7227C34.7245 26.9927 34.2982 27.2156 33.8192 27.3917C33.3402 27.5795 32.797 27.6733 32.1896 27.6733C31.6756 27.6733 31.2258 27.6029 30.8403 27.4621C30.4665 27.333 30.1452 27.157 29.8765 26.934C29.6195 26.6993 29.4268 26.4293 29.2983 26.1242C29.1698 25.8073 29.1055 25.4729 29.1055 25.1208V24.3286C28.5214 24.9623 27.9081 25.5198 27.2656 26.001C26.9853 26.2122 26.6874 26.4176 26.372 26.6171C26.0566 26.8166 25.7295 26.9985 25.3907 27.1628C25.0519 27.3154 24.7014 27.4386 24.3393 27.5325C23.9772 27.6264 23.615 27.6733 23.2529 27.6733C22.552 27.6733 21.9504 27.5501 21.448 27.3037C20.9574 27.0455 20.5602 26.711 20.2565 26.3002C19.9527 25.8895 19.7308 25.4259 19.5906 24.9095C19.4504 24.3932 19.3803 23.8768 19.3803 23.3604V12.4636C19.3803 12.3579 19.3745 12.2465 19.3628 12.1291C19.3511 12 19.3219 11.8826 19.2752 11.777C19.2285 11.6597 19.1584 11.5658 19.0649 11.4954C18.9715 11.4249 18.8371 11.3897 18.6619 11.3897C18.4516 11.3897 18.253 11.4719 18.0661 11.6362C17.8909 11.7888 17.7332 11.9472 17.593 12.1115L17.1549 11.7418C17.3301 11.4954 17.5463 11.2254 17.8033 10.932C18.0719 10.6269 18.3932 10.3394 18.767 10.0694C19.1408 9.79951 19.5672 9.57653 20.0462 9.40049C20.5368 9.21271 21.08 9.11883 21.6758 9.11883C22.1898 9.11883 22.6396 9.18924 23.0251 9.33007C23.4106 9.45917 23.7318 9.64108 23.9888 9.87579C24.2459 10.0988 24.4386 10.3687 24.5671 10.6856C24.6956 10.9907 24.7599 11.3193 24.7599 11.6714V23.4308C24.7599 23.5951 24.7832 23.7653 24.8299 23.9413C24.8884 24.1056 24.9643 24.2582 25.0577 24.399C25.1629 24.5399 25.2914 24.6572 25.4432 24.7511C25.5951 24.8333 25.7762 24.8743 25.9865 24.8743C26.3252 24.8743 26.664 24.7863 27.0028 24.6103C27.3416 24.4342 27.6511 24.2289 27.9315 23.9941C28.2119 23.7477 28.4513 23.5071 28.6499 23.2724C28.8602 23.0377 29.0121 22.8616 29.1055 22.7443V12.4636C29.1055 12.3579 29.0997 12.2465 29.088 12.1291C29.0763 12 29.0471 11.8826 29.0004 11.777C28.9537 11.6597 28.8836 11.5658 28.7901 11.4954C28.6967 11.4249 28.5623 11.3897 28.3871 11.3897C28.1768 11.3897 27.9782 11.4719 27.7913 11.6362C27.6161 11.7888 27.4584 11.9472 27.3182 12.1115L26.8801 11.7418C27.0554 11.4954 27.2715 11.2254 27.5285 10.932C27.7972 10.6269 28.1184 10.3394 28.4922 10.0694C28.8661 9.79951 29.2924 9.57653 29.7714 9.40049C30.262 9.21271 30.8053 9.11883 31.401 9.11883C31.915 9.11883 32.3648 9.18924 32.7503 9.33007C33.1358 9.45917 33.4571 9.64108 33.7141 9.87579C33.9711 10.0988 34.1638 10.3687 34.2923 10.6856C34.4208 10.9907 34.4851 11.3193 34.4851 11.6714V24.3286Z" fill="white"/>
<path d="M44.7885 10.6328V23.6421C44.7885 24.2641 44.9053 24.6983 45.139 24.9447C45.3726 25.1795 45.6939 25.2968 46.1027 25.2968C46.4182 25.2968 46.6985 25.2088 46.9438 25.0328C47.1892 24.8567 47.3994 24.6572 47.5747 24.4342C47.7849 24.1878 47.966 23.9002 48.1179 23.5716L48.6611 23.8181C48.4859 24.1936 48.2756 24.6044 48.0303 25.0504C47.7966 25.4963 47.4812 25.913 47.084 26.3002C46.6868 26.6758 46.1845 26.9927 45.5771 27.2509C44.9813 27.509 44.2278 27.6381 43.3166 27.6381C42.8026 27.6381 42.3061 27.5619 41.8272 27.4093C41.3599 27.2567 40.9393 27.0161 40.5655 26.6875C40.2034 26.3589 39.9113 25.9482 39.6894 25.4553C39.4674 24.9623 39.3564 24.3697 39.3564 23.6773V10.6328H37.3939V9.36528C37.721 9.36528 38.1766 9.28313 38.7607 9.11883C39.3447 8.94279 39.9405 8.65526 40.548 8.25624C41.1671 7.85721 41.7395 7.32323 42.2652 6.65428C42.7909 5.98533 43.1647 5.15795 43.3867 4.17213H44.7885V9.36528H47.6448C48.5793 9.36528 49.0466 9.20685 49.0466 8.88998C49.0466 8.77262 48.9882 8.69633 48.8714 8.66113C48.7545 8.61418 48.6202 8.56137 48.4683 8.50269C48.3282 8.43227 48.1997 8.33839 48.0828 8.22103C47.966 8.10367 47.9076 7.91002 47.9076 7.6401C47.9076 7.31149 48.0069 7.0533 48.2055 6.86553C48.4158 6.67775 48.6845 6.58386 49.0115 6.58386C49.2218 6.58386 49.4029 6.63081 49.5548 6.72469C49.7183 6.80685 49.8526 6.92421 49.9578 7.07677C50.0629 7.2176 50.1389 7.38191 50.1856 7.56968C50.244 7.75746 50.2732 7.94523 50.2732 8.13301C50.2732 8.89584 50.0512 9.50611 49.6073 9.96381C49.1751 10.4098 48.4742 10.6328 47.5046 10.6328H44.7885Z" fill="white"/>
<path d="M49.73 18.3785C49.73 16.8411 49.9519 15.4973 50.3959 14.3472C50.8398 13.1853 51.4297 12.2171 52.1657 11.4425C52.9133 10.668 53.7778 10.087 54.7591 9.69976C55.7403 9.31247 56.7683 9.11883 57.8431 9.11883C58.9178 9.11883 59.9458 9.30073 60.9271 9.66455C61.9084 10.0166 62.767 10.5623 63.503 11.3017C64.2506 12.0411 64.8464 12.98 65.2903 14.1183C65.7342 15.245 65.9562 16.5829 65.9562 18.132C65.9562 19.6694 65.7342 21.0308 65.2903 22.2161C64.8464 23.4015 64.2506 24.399 63.503 25.2088C62.767 26.0186 61.9084 26.6347 60.9271 27.0572C59.9458 27.468 58.9178 27.6733 57.8431 27.6733C56.7683 27.6733 55.7403 27.4797 54.7591 27.0924C53.7778 26.6934 52.9133 26.1066 52.1657 25.332C51.4297 24.5575 50.8398 23.5892 50.3959 22.4274C49.9519 21.2655 49.73 19.9159 49.73 18.3785ZM60.5066 18.2024C60.5066 17.2636 60.4715 16.3599 60.4014 15.4914C60.343 14.6112 60.2204 13.8308 60.0335 13.1501C59.8465 12.4694 59.5779 11.9296 59.2274 11.5306C58.8769 11.1198 58.4155 10.9144 57.8431 10.9144C57.2707 10.9144 56.8092 11.1315 56.4588 11.5658C56.1083 11.9883 55.8396 12.5516 55.6527 13.2557C55.4658 13.9482 55.3432 14.7403 55.2847 15.6323C55.2263 16.5242 55.1971 17.4396 55.1971 18.3785C55.1971 19.3174 55.2263 20.2386 55.2847 21.1423C55.3432 22.0342 55.4658 22.8323 55.6527 23.5364C55.8396 24.2406 56.1083 24.8098 56.4588 25.244C56.8092 25.6665 57.2707 25.8778 57.8431 25.8778C58.4155 25.8778 58.8769 25.6548 59.2274 25.2088C59.5779 24.7628 59.8465 24.176 60.0335 23.4484C60.2204 22.7208 60.343 21.8993 60.4014 20.9839C60.4715 20.0685 60.5066 19.1413 60.5066 18.2024Z" fill="white"/>
<path d="M78.9757 17.8328C78.9757 17.7037 78.9757 17.4455 78.9757 17.0582C78.9757 16.6592 78.964 16.2073 78.9407 15.7027C78.9173 15.1863 78.8764 14.6406 78.818 14.0655C78.7596 13.4905 78.6661 12.9565 78.5376 12.4636C78.2573 12.0998 77.9418 11.777 77.5914 11.4954C77.2526 11.202 76.8145 11.0553 76.2772 11.0553C75.366 11.0553 74.6943 11.6538 74.262 12.8509C73.8415 14.0479 73.6312 15.9022 73.6312 18.4137C73.6312 19.5169 73.6779 20.5262 73.7714 21.4416C73.8765 22.357 74.0284 23.1433 74.227 23.8005C74.4373 24.4577 74.7001 24.9682 75.0155 25.332C75.3426 25.6958 75.7281 25.8778 76.172 25.8778C78.0411 25.8778 78.9757 23.1961 78.9757 17.8328ZM78.7654 10.087C78.5435 8.91345 78.2339 7.822 77.8367 6.81271C77.4395 5.79169 76.9606 4.91149 76.3998 4.17213C75.8508 3.43276 75.22 2.85183 74.5074 2.42934C73.8064 2.00685 73.0471 1.7956 72.2294 1.7956C71.7621 1.7956 71.3357 1.85428 70.9502 1.97164C70.5764 2.089 70.2493 2.22983 69.9689 2.39413C69.6886 2.5467 69.4549 2.69927 69.268 2.85183C69.0928 2.99267 68.9643 3.09829 68.8825 3.1687L68.4269 2.55257C68.7073 2.18875 69.0461 1.84841 69.4432 1.53154C69.8521 1.21467 70.296 0.944743 70.775 0.72176C71.2539 0.498778 71.7563 0.322738 72.282 0.193643C72.8193 0.0645477 73.3509 0 73.8765 0C75.6055 0 77.1241 0.381418 78.4325 1.14425C79.7409 1.89535 80.8331 2.96333 81.7093 4.34817C82.5854 5.73301 83.2455 7.40538 83.6894 9.36528C84.1333 11.3252 84.3552 13.5022 84.3552 15.8963C84.3552 17.8328 84.1566 19.5345 83.7595 21.0015C83.374 22.4685 82.8191 23.7007 82.0948 24.6983C81.3705 25.6841 80.4885 26.4293 79.4488 26.934C78.4208 27.4269 77.2585 27.6733 75.9618 27.6733C75.0623 27.6733 74.1452 27.5149 73.2107 27.198C72.2878 26.8694 71.4467 26.3413 70.6874 25.6137C69.9397 24.8861 69.3264 23.9355 68.8475 22.7619C68.3685 21.5765 68.129 20.1271 68.129 18.4137C68.129 16.935 68.3335 15.6205 68.7423 14.4704C69.1629 13.3203 69.7236 12.3521 70.4245 11.5658C71.1254 10.7677 71.9373 10.1633 72.8602 9.75257C73.7831 9.33007 74.7585 9.11883 75.7865 9.11883C76.1837 9.11883 76.54 9.15403 76.8554 9.22445C77.1708 9.28313 77.4454 9.35941 77.679 9.4533C77.9127 9.54719 78.1171 9.65281 78.2923 9.77017C78.4675 9.87579 78.6252 9.98142 78.7654 10.087Z" fill="white"/>
<path d="M93.3094 25.8073C93.3094 25.9599 93.2802 26.1477 93.2218 26.3707C93.1751 26.5819 93.0524 26.7873 92.8538 26.9868C92.6669 27.1746 92.3924 27.333 92.0303 27.4621C91.6681 27.6029 91.1775 27.6733 90.5583 27.6733C89.9392 27.6733 89.4544 27.5971 89.1039 27.4445C88.7535 27.3037 88.4906 27.1335 88.3154 26.934C88.1402 26.7345 88.0292 26.5291 87.9825 26.3178C87.9474 26.1066 87.9299 25.9364 87.9299 25.8073V12.2171C87.9299 11.8768 87.8481 11.5834 87.6846 11.3369C87.5327 11.0787 87.2699 10.9496 86.8961 10.9496C86.6975 10.9496 86.5281 10.9848 86.3879 11.0553C86.2477 11.1257 86.0958 11.2254 85.9323 11.3545L85.5643 10.9144C85.833 10.6914 86.1309 10.4743 86.458 10.2631C86.7968 10.0401 87.1589 9.84645 87.5444 9.68215C87.9299 9.51785 88.3446 9.38288 88.7885 9.27726C89.2324 9.17164 89.6997 9.11883 90.1904 9.11883C90.9497 9.11883 91.5396 9.22445 91.9602 9.4357C92.3807 9.63521 92.6903 9.88753 92.8889 10.1927C93.0875 10.4861 93.2043 10.8029 93.2393 11.1433C93.2861 11.4836 93.3094 11.7829 93.3094 12.0411V25.8073ZM87.3867 5.10513C87.3867 4.77653 87.4568 4.46553 87.597 4.17213C87.7488 3.86699 87.9533 3.60293 88.2103 3.37995C88.479 3.15697 88.7827 2.98093 89.1215 2.85183C89.4719 2.72274 89.8516 2.65819 90.2605 2.65819C90.6576 2.65819 91.0256 2.72274 91.3644 2.85183C91.7149 2.98093 92.0186 3.15697 92.2756 3.37995C92.5326 3.60293 92.7312 3.86699 92.8714 4.17213C93.0232 4.46553 93.0992 4.77653 93.0992 5.10513C93.0992 5.44548 93.0232 5.76235 92.8714 6.05575C92.7312 6.34914 92.5326 6.60734 92.2756 6.83032C92.0186 7.04156 91.7149 7.21174 91.3644 7.34083C91.0256 7.46993 90.6576 7.53447 90.2605 7.53447C89.8516 7.53447 89.4719 7.46993 89.1215 7.34083C88.7827 7.21174 88.479 7.04156 88.2103 6.83032C87.9533 6.60734 87.7488 6.34914 87.597 6.05575C87.4568 5.76235 87.3867 5.44548 87.3867 5.10513Z" fill="white"/>
<path d="M96.9892 16.3188C96.9892 15.1218 97.1937 14.0773 97.6025 13.1853C98.0231 12.2817 98.5838 11.5306 99.2847 10.932C99.9857 10.3218 100.798 9.86993 101.72 9.57653C102.643 9.27139 103.613 9.11883 104.629 9.11883C105.646 9.11883 106.609 9.25379 107.521 9.52372C108.432 9.79364 109.238 10.2103 109.939 10.7736C110.161 10.4333 110.342 10.0753 110.482 9.69976C110.622 9.32421 110.692 8.94866 110.692 8.5731C110.692 8.0802 110.558 7.68704 110.289 7.39364C110.032 7.10024 109.699 6.95355 109.29 6.95355V6.44303C109.547 6.36088 109.775 6.29046 109.974 6.23178C110.172 6.16137 110.353 6.10856 110.517 6.07335C110.68 6.03814 110.844 6.01467 111.008 6.00293C111.171 5.97946 111.352 5.96773 111.551 5.96773C112.1 5.96773 112.52 6.1379 112.812 6.47824C113.104 6.81858 113.25 7.28802 113.25 7.88655C113.25 8.23863 113.169 8.59071 113.005 8.94279C112.842 9.28313 112.637 9.61174 112.392 9.92861C112.147 10.2455 111.872 10.5447 111.568 10.8264C111.276 11.1081 110.996 11.3545 110.727 11.5658C111.218 12.1291 111.597 12.7863 111.866 13.5374C112.135 14.2885 112.269 15.1452 112.269 16.1076C112.269 17.3164 112.059 18.3844 111.638 19.3115C111.23 20.2386 110.675 21.0191 109.974 21.6528C109.273 22.2866 108.461 22.7677 107.538 23.0963C106.615 23.4132 105.646 23.5716 104.629 23.5716C104.033 23.5716 103.449 23.5188 102.877 23.4132C102.305 23.3076 101.767 23.155 101.265 22.9555C101.078 23.0963 100.914 23.2724 100.774 23.4836C100.646 23.6949 100.581 23.9296 100.581 24.1878C100.581 24.622 100.768 24.9447 101.142 25.156C101.516 25.3672 102.012 25.5198 102.632 25.6137C103.251 25.7076 103.952 25.7663 104.734 25.7897C105.517 25.8132 106.317 25.8543 107.135 25.913C107.964 25.9599 108.77 26.0597 109.553 26.2122C110.336 26.3531 111.037 26.5936 111.656 26.934C112.275 27.2626 112.772 27.7144 113.145 28.2895C113.519 28.8645 113.706 29.6098 113.706 30.5252C113.706 31.1941 113.566 31.7927 113.286 32.3208C113.005 32.8606 112.626 33.3301 112.147 33.7291C111.679 34.1399 111.13 34.4861 110.499 34.7677C109.88 35.0611 109.22 35.2958 108.519 35.4719C107.83 35.6597 107.123 35.7946 106.399 35.8768C105.686 35.9589 105.003 36 104.349 36C103.157 36 102.083 35.9355 101.125 35.8064C100.178 35.689 99.3724 35.5012 98.7065 35.243C98.0406 34.9848 97.5266 34.6504 97.1645 34.2396C96.8023 33.8288 96.6213 33.3359 96.6213 32.7609C96.6213 32.3501 96.7147 31.9687 96.9016 31.6166C97.0885 31.2763 97.3339 30.9594 97.6376 30.666C97.953 30.3844 98.3035 30.1262 98.689 29.8914C99.0745 29.6685 99.4658 29.4572 99.863 29.2577C99.2789 29.0112 98.7883 28.6357 98.3911 28.1311C98.0056 27.6381 97.8128 26.9809 97.8128 26.1594C97.8128 25.7252 97.8888 25.3262 98.0406 24.9623C98.1925 24.5868 98.3852 24.2465 98.6189 23.9413C98.8642 23.6245 99.127 23.3428 99.4074 23.0963C99.6995 22.8381 99.9798 22.621 100.249 22.445C99.7695 22.1633 99.3256 21.823 98.9168 21.424C98.5196 21.0132 98.175 20.5555 97.8829 20.0509C97.6025 19.5345 97.3806 18.9653 97.217 18.3433C97.0652 17.7213 96.9892 17.0465 96.9892 16.3188ZM106.995 16.178C106.995 15.4973 106.96 14.8342 106.89 14.1888C106.82 13.5433 106.697 12.9682 106.522 12.4636C106.346 11.9589 106.107 11.554 105.803 11.2489C105.5 10.932 105.108 10.7736 104.629 10.7736C104.15 10.7736 103.759 10.9379 103.455 11.2665C103.151 11.5834 102.912 12.0059 102.737 12.534C102.562 13.0504 102.439 13.643 102.369 14.312C102.299 14.9692 102.264 15.6381 102.264 16.3188C102.264 17.0112 102.299 17.6919 102.369 18.3609C102.439 19.0298 102.562 19.6284 102.737 20.1565C102.912 20.6846 103.151 21.113 103.455 21.4416C103.759 21.7584 104.15 21.9169 104.629 21.9169C105.108 21.9169 105.5 21.7467 105.803 21.4064C106.107 21.066 106.346 20.6259 106.522 20.0861C106.697 19.5345 106.82 18.9183 106.89 18.2377C106.96 17.557 106.995 16.8704 106.995 16.178ZM109.658 31.9335C109.658 31.5579 109.512 31.2469 109.22 31.0005C108.928 30.7658 108.543 30.5721 108.064 30.4196C107.596 30.2787 107.059 30.1672 106.452 30.0851C105.856 30.0147 105.248 29.956 104.629 29.909C104.01 29.8738 103.408 29.8386 102.824 29.8034C102.24 29.7682 101.732 29.7213 101.3 29.6626C101.055 29.8386 100.815 30.0264 100.581 30.2259C100.359 30.4372 100.161 30.6543 99.9857 30.8773C99.8221 31.112 99.6878 31.3526 99.5826 31.599C99.4775 31.8572 99.4249 32.1154 99.4249 32.3736C99.4249 32.8196 99.5534 33.1892 99.8104 33.4826C100.067 33.7878 100.412 34.0284 100.844 34.2044C101.288 34.3804 101.796 34.5037 102.369 34.5741C102.953 34.6445 103.566 34.6797 104.209 34.6797C105.061 34.6797 105.827 34.6034 106.504 34.4509C107.182 34.31 107.754 34.1105 108.221 33.8523C108.689 33.6059 109.045 33.3183 109.29 32.9897C109.536 32.6611 109.658 32.309 109.658 31.9335Z" fill="white"/>
<path d="M115.283 16.3188C115.283 15.1218 115.488 14.0773 115.896 13.1853C116.317 12.2817 116.878 11.5306 117.579 10.932C118.28 10.3218 119.091 9.86993 120.014 9.57653C120.937 9.27139 121.907 9.11883 122.923 9.11883C123.939 9.11883 124.903 9.25379 125.814 9.52372C126.726 9.79364 127.532 10.2103 128.233 10.7736C128.455 10.4333 128.636 10.0753 128.776 9.69976C128.916 9.32421 128.986 8.94866 128.986 8.5731C128.986 8.0802 128.852 7.68704 128.583 7.39364C128.326 7.10024 127.993 6.95355 127.584 6.95355V6.44303C127.841 6.36088 128.069 6.29046 128.268 6.23178C128.466 6.16137 128.647 6.10856 128.811 6.07335C128.974 6.03814 129.138 6.01467 129.301 6.00293C129.465 5.97946 129.646 5.96773 129.845 5.96773C130.394 5.96773 130.814 6.1379 131.106 6.47824C131.398 6.81858 131.544 7.28802 131.544 7.88655C131.544 8.23863 131.463 8.59071 131.299 8.94279C131.136 9.28313 130.931 9.61174 130.686 9.92861C130.44 10.2455 130.166 10.5447 129.862 10.8264C129.57 11.1081 129.29 11.3545 129.021 11.5658C129.512 12.1291 129.891 12.7863 130.16 13.5374C130.429 14.2885 130.563 15.1452 130.563 16.1076C130.563 17.3164 130.353 18.3844 129.932 19.3115C129.523 20.2386 128.969 21.0191 128.268 21.6528C127.567 22.2866 126.755 22.7677 125.832 23.0963C124.909 23.4132 123.939 23.5716 122.923 23.5716C122.327 23.5716 121.743 23.5188 121.171 23.4132C120.598 23.3076 120.061 23.155 119.559 22.9555C119.372 23.0963 119.208 23.2724 119.068 23.4836C118.94 23.6949 118.875 23.9296 118.875 24.1878C118.875 24.622 119.062 24.9447 119.436 25.156C119.81 25.3672 120.306 25.5198 120.926 25.6137C121.545 25.7076 122.246 25.7663 123.028 25.7897C123.811 25.8132 124.611 25.8543 125.429 25.913C126.258 25.9599 127.064 26.0597 127.847 26.2122C128.63 26.3531 129.331 26.5936 129.95 26.934C130.569 27.2626 131.065 27.7144 131.439 28.2895C131.813 28.8645 132 29.6098 132 30.5252C132 31.1941 131.86 31.7927 131.579 32.3208C131.299 32.8606 130.919 33.3301 130.44 33.7291C129.973 34.1399 129.424 34.4861 128.793 34.7677C128.174 35.0611 127.514 35.2958 126.813 35.4719C126.124 35.6597 125.417 35.7946 124.693 35.8768C123.98 35.9589 123.297 36 122.643 36C121.451 36 120.376 35.9355 119.419 35.8064C118.472 35.689 117.666 35.5012 117 35.243C116.335 34.9848 115.821 34.6504 115.458 34.2396C115.096 33.8288 114.915 33.3359 114.915 32.7609C114.915 32.3501 115.009 31.9687 115.196 31.6166C115.382 31.2763 115.628 30.9594 115.931 30.666C116.247 30.3844 116.597 30.1262 116.983 29.8914C117.368 29.6685 117.76 29.4572 118.157 29.2577C117.573 29.0112 117.082 28.6357 116.685 28.1311C116.299 27.6381 116.107 26.9809 116.107 26.1594C116.107 25.7252 116.183 25.3262 116.335 24.9623C116.486 24.5868 116.679 24.2465 116.913 23.9413C117.158 23.6245 117.421 23.3428 117.701 23.0963C117.993 22.8381 118.274 22.621 118.542 22.445C118.063 22.1633 117.62 21.823 117.211 21.424C116.813 21.0132 116.469 20.5555 116.177 20.0509C115.896 19.5345 115.674 18.9653 115.511 18.3433C115.359 17.7213 115.283 17.0465 115.283 16.3188ZM125.289 16.178C125.289 15.4973 125.254 14.8342 125.184 14.1888C125.113 13.5433 124.991 12.9682 124.816 12.4636C124.64 11.9589 124.401 11.554 124.097 11.2489C123.793 10.932 123.402 10.7736 122.923 10.7736C122.444 10.7736 122.053 10.9379 121.749 11.2665C121.445 11.5834 121.206 12.0059 121.031 12.534C120.855 13.0504 120.733 13.643 120.663 14.312C120.593 14.9692 120.558 15.6381 120.558 16.3188C120.558 17.0112 120.593 17.6919 120.663 18.3609C120.733 19.0298 120.855 19.6284 121.031 20.1565C121.206 20.6846 121.445 21.113 121.749 21.4416C122.053 21.7584 122.444 21.9169 122.923 21.9169C123.402 21.9169 123.793 21.7467 124.097 21.4064C124.401 21.066 124.64 20.6259 124.816 20.0861C124.991 19.5345 125.113 18.9183 125.184 18.2377C125.254 17.557 125.289 16.8704 125.289 16.178ZM127.952 31.9335C127.952 31.5579 127.806 31.2469 127.514 31.0005C127.222 30.7658 126.837 30.5721 126.358 30.4196C125.89 30.2787 125.353 30.1672 124.746 30.0851C124.15 30.0147 123.542 29.956 122.923 29.909C122.304 29.8738 121.702 29.8386 121.118 29.8034C120.534 29.7682 120.026 29.7213 119.594 29.6626C119.348 29.8386 119.109 30.0264 118.875 30.2259C118.653 30.4372 118.455 30.6543 118.28 30.8773C118.116 31.112 117.982 31.3526 117.877 31.599C117.771 31.8572 117.719 32.1154 117.719 32.3736C117.719 32.8196 117.847 33.1892 118.104 33.4826C118.361 33.7878 118.706 34.0284 119.138 34.2044C119.582 34.3804 120.09 34.5037 120.663 34.5741C121.247 34.6445 121.86 34.6797 122.503 34.6797C123.355 34.6797 124.121 34.6034 124.798 34.4509C125.476 34.31 126.048 34.1105 126.515 33.8523C126.983 33.6059 127.339 33.3183 127.584 32.9897C127.83 32.6611 127.952 32.309 127.952 31.9335Z" fill="white"/>
</svg>
