<svg width="16" height="13" viewBox="0 0 16 13" fill="none" xmlns="http://www.w3.org/2000/svg">
<path d="M1.23278 13H2.02854C2.5373 13 2.92866 12.5973 2.92866 12.0805V10.9866C4.37016 11.0738 6.35956 11.1342 8.00326 11.1342C9.64044 11.1342 11.6298 11.0738 13.0779 10.9866V12.0805C13.0779 12.5973 13.4692 13 13.9715 13H14.7737C15.276 13 15.6673 12.5973 15.6673 12.0805V10.2617C15.8891 9.98658 16 9.62416 16 9.18792V8.00671C16 6.78523 15.8174 6.09396 15.1847 5.28859L14.5846 4.52349C14.3433 3.31544 13.9062 2.04698 13.6779 1.55034C13.3062 0.731544 12.5821 0.241611 11.6494 0.107383C11.1537 0.0402685 9.77742 0 8.00326 0C6.22911 0 4.85283 0.0469799 4.35711 0.107383C3.42438 0.228188 2.69384 0.731544 2.32205 1.55034C2.10029 2.04698 1.66327 3.31544 1.42193 4.52349L0.821851 5.28859C0.189156 6.09396 0 6.78523 0 8.00671V9.18792C0 9.62416 0.117407 9.98658 0.332654 10.2617V12.0805C0.332654 12.5973 0.724011 13 1.23278 13ZM8.00326 9.89262C5.75296 9.89262 3.0265 9.77852 1.95679 9.65101C1.40236 9.58389 1.1806 9.2953 1.1806 8.78524V7.89262C1.1806 7 1.36323 6.56376 1.7872 5.99329L2.52426 5C2.67428 4.16107 3.09172 2.73826 3.35915 2.15436C3.58744 1.66443 4.00489 1.40268 4.55932 1.32886C5.02242 1.26846 6.26172 1.21477 8.00326 1.21477C9.73828 1.21477 10.9971 1.27517 11.4342 1.32886C12.0016 1.40268 12.4126 1.67114 12.6474 2.16107C12.9148 2.72483 13.3257 4.14094 13.4823 5L14.2128 5.99329C14.6368 6.56376 14.8194 7 14.8194 7.89262V8.78524C14.8194 9.2953 14.6042 9.58389 14.0497 9.65101C12.9735 9.77852 10.2536 9.89262 8.00326 9.89262ZM3.39829 4.24161C3.33306 4.53691 3.45699 4.69799 3.77008 4.67785C4.66368 4.63087 5.84427 4.57047 8.00326 4.57047C10.1623 4.57047 11.3428 4.63087 12.2299 4.67785C12.5495 4.69799 12.6735 4.53691 12.6017 4.24161C12.4713 3.65101 12.2234 2.86577 12.0538 2.55034C11.8647 2.18792 11.6298 2.04698 11.2124 1.98658C10.8015 1.92617 9.73828 1.88591 8.00326 1.88591C6.26824 1.88591 5.20505 1.92617 4.78761 1.98658C4.37016 2.04698 4.14187 2.18792 3.95271 2.55034C3.78312 2.86577 3.53526 3.65101 3.39829 4.24161ZM3.23522 9.12081C3.88748 9.12081 4.3832 8.61074 4.3832 7.9396C4.3832 7.26846 3.88748 6.75839 3.23522 6.75839C2.57644 6.75839 2.08072 7.26846 2.08072 7.9396C2.08072 8.61074 2.57644 9.12081 3.23522 9.12081ZM12.7713 9.12081C13.4236 9.12081 13.9193 8.61074 13.9193 7.9396C13.9193 7.26846 13.4236 6.75839 12.7713 6.75839C12.1125 6.75839 11.6168 7.26846 11.6168 7.9396C11.6168 8.61074 12.1125 9.12081 12.7713 9.12081ZM6.20954 8.79866H9.79698C10.2862 8.79866 10.6319 8.44295 10.6319 7.9396C10.6319 7.43624 10.2862 7.08054 9.79698 7.08054H6.20954C5.72034 7.08054 5.37464 7.43624 5.37464 7.9396C5.37464 8.44295 5.72034 8.79866 6.20954 8.79866Z" fill="#555770"/>
</svg>
