<svg width="16" height="16" viewBox="0 0 16 16" fill="none" xmlns="http://www.w3.org/2000/svg">
<path d="M7.99613 16C12.3809 16 16 12.3809 16 8.00387C16 3.61914 12.3731 0 7.9884 0C3.61141 0 0 3.61914 0 8.00387C0 12.3809 3.61914 16 7.99613 16ZM7.99613 14.3992C4.44659 14.3992 1.60851 11.5457 1.60851 8.00387C1.60851 4.45433 4.44659 1.60077 7.9884 1.60077C11.5379 1.60077 14.3915 4.45433 14.3992 8.00387C14.407 11.5457 11.5457 14.3992 7.99613 14.3992ZM7.9884 4.41566C8.42146 4.41566 8.78492 4.0522 8.78492 3.61914C8.78492 3.17835 8.42146 2.82262 7.9884 2.82262C7.54761 2.82262 7.19961 3.17835 7.19961 3.61914C7.19961 4.0522 7.55534 4.41566 7.9884 4.41566ZM4.93378 5.76124C5.37458 5.76124 5.7303 5.39778 5.7303 4.96472C5.7303 4.53166 5.37458 4.1682 4.93378 4.1682C4.50073 4.1682 4.13726 4.53166 4.13726 4.96472C4.13726 5.39778 4.50073 5.76124 4.93378 5.76124ZM11.0507 5.76124C11.4838 5.76124 11.8473 5.39778 11.8473 4.96472C11.8473 4.53166 11.4838 4.1682 11.0507 4.1682C10.61 4.1682 10.2542 4.53166 10.2542 4.96472C10.2542 5.39778 10.61 5.76124 11.0507 5.76124ZM7.99613 8.80812C8.43693 8.80812 8.80812 8.43693 8.80812 7.99613C8.80812 7.94973 8.80812 7.91107 8.80039 7.8724L9.88304 6.49589C9.9913 6.34896 10.0145 6.16336 9.88304 6.03963C9.76704 5.9391 9.58917 5.93137 9.44998 6.03963L8.11213 7.19188C8.07347 7.18415 8.0348 7.17641 7.99613 7.17641C7.54761 7.17641 7.18415 7.53987 7.18415 7.99613C7.18415 8.43693 7.54761 8.80812 7.99613 8.80812ZM3.65007 8.79265C4.09087 8.79265 4.44659 8.42919 4.44659 7.99613C4.44659 7.55534 4.09087 7.19961 3.65007 7.19961C3.21701 7.19961 2.85355 7.55534 2.85355 7.99613C2.85355 8.42919 3.21701 8.79265 3.65007 8.79265ZM12.3345 8.79265C12.7675 8.79265 13.131 8.42919 13.131 7.99613C13.131 7.55534 12.7675 7.19961 12.3345 7.19961C11.8937 7.19961 11.5379 7.55534 11.5379 7.99613C11.5379 8.42919 11.8937 8.79265 12.3345 8.79265ZM4.94925 11.8241C5.39004 11.8241 5.74577 11.4606 5.74577 11.0275C5.74577 10.5868 5.39004 10.231 4.94925 10.231C4.51619 10.231 4.15273 10.5868 4.15273 11.0275C4.15273 11.4606 4.51619 11.8241 4.94925 11.8241ZM11.0353 11.8241C11.4683 11.8241 11.8318 11.4606 11.8318 11.0275C11.8318 10.5868 11.4683 10.231 11.0353 10.231C10.5945 10.231 10.2388 10.5868 10.2388 11.0275C10.2388 11.4606 10.5945 11.8241 11.0353 11.8241Z" fill="#555770"/>
</svg>
