<svg width="16" height="16" viewBox="0 0 16 16" fill="none" xmlns="http://www.w3.org/2000/svg">
<path d="M11.9251 8.33211L12.1615 8.08649C12.5504 7.67201 12.5656 7.19613 12.1463 6.77397L11.9175 6.5437C13.1298 5.4461 14.4184 5.36167 15.2495 4.50968C16.439 3.30462 16.0501 1.62367 15.219 0.779355C14.3956 -0.0649574 12.7334 -0.425709 11.521 0.748653C10.667 1.58529 10.5832 2.89014 9.50046 4.11055L9.27171 3.87261C8.85998 3.45045 8.37199 3.47348 7.96025 3.86493L7.72389 4.0952C7.22828 4.56341 7.31977 4.99324 7.73914 5.4154L8.067 5.74545L2.60004 11.2565C0.144871 13.728 1.33433 13.3366 0 15.2324L0.724353 16C2.54667 14.6645 2.28743 15.977 4.78073 13.4824L10.2858 7.97903L10.6213 8.30908C11.0407 8.73124 11.46 8.82335 11.9251 8.33211ZM2.43992 13.682C2.17306 13.3903 2.22643 13.114 2.51617 12.8223L8.79898 6.47462L9.58433 7.27288L3.27865 13.6129C3.02703 13.8739 2.69154 13.9583 2.43992 13.682Z" fill="#555770"/>
</svg>
