<svg width="18" height="14" viewBox="0 0 18 14" fill="none" xmlns="http://www.w3.org/2000/svg">
<path d="M7.66001 1C7.50751 1.02764 7.39751 1.15745 7.40001 1.30769V2.53846C7.40001 2.70793 7.54376 2.84615 7.72001 2.84615H9V3.76923H7.40001C7.16001 3.76923 6.92876 3.86298 6.76001 4.02885C6.75376 4.03125 6.74626 4.03486 6.74001 4.03846L5.33001 5.61538H4.52001C4.25251 5.61538 4.02001 5.73077 3.85001 5.89423C3.68001 6.05769 3.56001 6.28125 3.56001 6.53846V7.46154H2.92001V5.92308C2.92001 5.75361 2.77626 5.61538 2.60001 5.61538H1.32001C1.31001 5.61538 1.30001 5.61538 1.29001 5.61538C1.12501 5.62981 0.998759 5.76322 1.00001 5.92308V10.8462C1.00001 11.0156 1.14376 11.1538 1.32001 11.1538H2.60001C2.77626 11.1538 2.92001 11.0156 2.92001 10.8462V9.30769H3.56001V10.2308C3.56001 10.4892 3.67876 10.7115 3.85001 10.875C4.02126 11.0385 4.25501 11.1538 4.52001 11.1538H5.33001L6.74001 12.7308C6.74626 12.7344 6.75376 12.738 6.76001 12.7404C6.92751 12.905 7.16001 13 7.40001 13H11.51C11.75 13 11.9825 12.905 12.15 12.7404L14.5 10.4423C14.6688 10.2776 14.76 10.0565 14.76 9.82692V9.30769H15.08V10.5385C15.0813 10.7079 15.2238 10.845 15.4 10.8462H16.68C16.8563 10.845 16.9988 10.7079 17 10.5385V5.61538C16.9988 5.44591 16.8563 5.30889 16.68 5.30769H15.4C15.2238 5.30889 15.0813 5.44591 15.08 5.61538V6.84615H14.76V4.64423C14.76 4.16707 14.3563 3.76923 13.86 3.76923H10.92V2.84615H12.2C12.3763 2.84615 12.52 2.70793 12.52 2.53846V1.30769C12.52 1.13822 12.3763 1 12.2 1H7.72001C7.71001 1 7.70001 1 7.69001 1C7.68001 1 7.67001 1 7.66001 1ZM8.04001 1.61538H11.88V2.23077H10.6C10.4238 2.23077 10.28 2.36899 10.28 2.53846V3.76923H9.64V2.53846C9.64 2.36899 9.49625 2.23077 9.32 2.23077H8.04001V1.61538ZM7.40001 4.38462H13.86C14.0025 4.38462 14.12 4.49519 14.12 4.64423V7.15385C14.1213 7.32332 14.2638 7.46034 14.44 7.46154H15.4C15.5763 7.46034 15.7188 7.32332 15.72 7.15385V5.92308H16.36V10.2308H15.72V9C15.7188 8.83053 15.5763 8.69351 15.4 8.69231H14.44C14.2638 8.69351 14.1213 8.83053 14.12 9V9.82692C14.12 9.89784 14.0888 9.96154 14.04 10.0096L11.69 12.3077C11.6413 12.3558 11.5763 12.3846 11.51 12.3846H7.40001C7.33376 12.3846 7.26876 12.3558 7.22001 12.3077L5.72001 10.6442C5.66001 10.5781 5.57251 10.5385 5.48001 10.5385H4.52001C4.46626 10.5385 4.37876 10.4988 4.31001 10.4327C4.24126 10.3666 4.20001 10.2861 4.20001 10.2308V6.53846C4.20001 6.48798 4.24001 6.40385 4.31001 6.33654C4.38001 6.26923 4.46751 6.23077 4.52001 6.23077H5.48001C5.57251 6.23077 5.66001 6.19111 5.72001 6.125L7.22001 4.46154C7.26876 4.41346 7.33376 4.38462 7.40001 4.38462ZM9.64 5.61538L8.04001 8.69231H9.64L8.68 11.4615L11.24 8.07692H9.64L11.24 5.61538H9.64ZM1.64001 6.23077H2.28001V7.76923C2.28001 7.9387 2.42376 8.07692 2.60001 8.07692H3.56001V8.69231H2.60001C2.42376 8.69231 2.28001 8.83053 2.28001 9V10.5385H1.64001V6.23077Z" fill="#555770" stroke="#555770" stroke-width="0.3"/>
</svg>
