<svg width="15" height="16" viewBox="0 0 15 16" fill="none" xmlns="http://www.w3.org/2000/svg">
<path d="M14.3364 3.76L14.3455 3.75111L10.9636 0.444444C10.5 0 9.5 0.5 10 1.38667L11.9182 3.26222C11.0636 3.58222 10.4545 4.38222 10.4545 5.33333C10.4545 6.56 11.4727 7.55556 12.7273 7.55556C13.0545 7.55556 13.3545 7.48444 13.6364 7.36889V13.7778C13.6364 14.2667 13.2273 14.6667 12.7273 14.6667C12.2273 14.6667 11.8182 14.2667 11.8182 13.7778V9.77778C11.8182 8.8 11 8 10 8H9.09091V1.77778C9.09091 0.8 8.27273 0 7.27273 0H1.81818C0.818182 0 0 0.8 0 1.77778V14C0 15.1046 0.895431 16 2 16H7.09091C8.19548 16 9.09091 15.1046 9.09091 14V9.33333H10.4545V13.7778C10.4545 15.0044 11.4727 16 12.7273 16C13.9818 16 15 15.0044 15 13.7778V5.33333C15 4.72 14.7455 4.16 14.3364 3.76ZM7.27273 9.33333V14.2222H1.81818V8H7.27273V9.33333ZM7.27273 6.22222H1.81818V1.77778H7.27273V6.22222ZM12.7273 6.22222C12.2273 6.22222 11.8182 5.82222 11.8182 5.33333C11.8182 4.84444 12.2273 4.44444 12.7273 4.44444C13.2273 4.44444 13.6364 4.84444 13.6364 5.33333C13.6364 5.82222 13.2273 6.22222 12.7273 6.22222Z" fill="#555770"/>
</svg>
