<svg width="11" height="13" viewBox="0 0 11 13" fill="none" xmlns="http://www.w3.org/2000/svg">
<path d="M2.02862 9.36597L1.47774 12.0695C1.46025 12.1573 1.45151 12.2627 1.45151 12.3417C1.45151 12.763 1.72258 13 2.14229 13C2.57949 13 2.84181 12.7718 2.938 12.3066L3.52385 9.36597H6.22576L5.68362 12.0695C5.66614 12.1573 5.64865 12.2627 5.64865 12.3417C5.64865 12.763 5.91971 13 6.33943 13C6.77663 13 7.03895 12.7542 7.13514 12.289L7.72973 9.36597H9.35612C9.85453 9.36597 10.1781 9.03241 10.1781 8.54085C10.1781 8.15463 9.91574 7.88251 9.52226 7.88251H8.01828L8.61288 4.97704H10.1693C10.6677 4.97704 11 4.64348 11 4.1607C11 3.77448 10.7377 3.50236 10.3355 3.50236H8.91892L9.43482 0.930452C9.46105 0.842674 9.46979 0.73734 9.46979 0.658339C9.46979 0.237002 9.19873 0 8.77901 0C8.34181 0 8.07949 0.24578 7.98331 0.711006L7.4062 3.50236H4.72178L5.23768 0.930452C5.25517 0.842674 5.27266 0.73734 5.27266 0.658339C5.27266 0.237002 5.00159 0 4.58188 0C4.13593 0 3.88235 0.24578 3.78617 0.702228L3.20906 3.50236H1.62639C1.13672 3.50236 0.804452 3.83592 0.804452 4.3187C0.804452 4.71371 1.06677 4.98582 1.469 4.98582H2.91176L2.33466 7.88251H0.830684C0.332273 7.88251 0 8.21607 0 8.69885C0 9.09386 0.271065 9.36597 0.664547 9.36597H2.02862ZM3.75994 7.95273L4.37202 4.9156H7.17886L6.55803 7.95273H3.75994Z" fill="#555770"/>
</svg>
