<svg width="16" height="16" viewBox="0 0 16 16" fill="none" xmlns="http://www.w3.org/2000/svg">
<path d="M8 0C3.60158 0 0 3.60158 0 8C0 12.3984 3.60158 16 8 16C12.3984 16 16 12.3984 16 8C16 3.60158 12.3984 0 8 0ZM8 0.695652C12.019 0.695652 15.3043 3.98103 15.3043 8C15.3043 12.019 12.019 15.3043 8 15.3043C3.98103 15.3043 0.695652 12.019 0.695652 8C0.695652 3.98103 3.98103 0.695652 8 0.695652ZM8 1.73913C4.54634 1.73913 1.73913 4.54634 1.73913 8C1.73913 11.4537 4.54634 14.2609 8 14.2609C11.4537 14.2609 14.2609 11.4537 14.2609 8C14.2609 4.54634 11.4537 1.73913 8 1.73913ZM8 2.43478C10.5938 2.43478 12.7621 4.20409 13.3818 6.6019C12.1816 6.56613 11.4859 6.19499 10.7731 5.78533C10.0236 5.35456 9.23566 4.86957 8 4.86957C6.76434 4.86957 6.01299 5.3584 5.28804 5.78736C4.59648 6.19658 3.90397 6.56815 2.61821 6.6019C3.23794 4.20409 5.40624 2.43478 8 2.43478ZM8 5.56522C9.05999 5.56522 9.66312 5.94979 10.4266 6.38859C11.1814 6.82233 12.0826 7.29152 13.517 7.30231C13.5456 7.53125 13.5652 7.7632 13.5652 8C13.5652 8.35706 13.5287 8.70527 13.4647 9.04348H11.1304C9.99377 9.04348 9.04348 9.99377 9.04348 11.1304V13.4647C8.70527 13.5287 8.35706 13.5652 8 13.5652C7.64294 13.5652 7.29473 13.5287 6.95652 13.4647V11.1304C6.95652 9.98261 6.05417 9.04348 4.86957 9.04348H2.53533C2.47133 8.70527 2.43478 8.35706 2.43478 8C2.43478 7.7632 2.45443 7.53125 2.48302 7.30231C3.99901 7.29205 4.90619 6.82233 5.64266 6.38655C6.38728 5.94595 6.94001 5.56522 8 5.56522ZM8 6.26087C7.04362 6.26087 6.26087 7.04362 6.26087 8C6.26087 8.95638 7.04362 9.73913 8 9.73913C8.95638 9.73913 9.73913 8.95638 9.73913 8C9.73913 7.04362 8.95638 6.26087 8 6.26087ZM8 6.95652C8.58042 6.95652 9.04348 7.41958 9.04348 8C9.04348 8.58042 8.58042 9.04348 8 9.04348C7.41958 9.04348 6.95652 8.58042 6.95652 8C6.95652 7.41958 7.41958 6.95652 8 6.95652ZM2.71535 9.73913H4.86957C5.70235 9.73913 6.26087 10.3304 6.26087 11.1304V13.2846C4.5856 12.7349 3.26513 11.4144 2.71535 9.73913ZM11.1304 9.73913H13.2846C12.7349 11.4144 11.4144 12.7349 9.73913 13.2846V11.1304C9.73913 10.3888 10.3888 9.73913 11.1304 9.73913Z" fill="#555770"/>
</svg>
