<svg width="12" height="20" viewBox="0 0 12 20" fill="none" xmlns="http://www.w3.org/2000/svg">
<path d="M6 0C4.10879 0 2.57143 1.6532 2.57143 3.67454C2.57143 4.10261 2.67055 4.50205 2.7966 4.88459C2.79264 4.94856 2.80148 5.0127 2.82254 5.0728L4.31334 9.2516C4.34412 9.33797 4.39897 9.41236 4.4706 9.46485C4.54222 9.51734 4.62722 9.54546 4.71429 9.54545V14.0909C3.1564 14.0909 1.90932 15.3769 1.76786 16.9913C0.749677 17.3547 0 18.3466 0 19.5455C1.13644e-05 19.666 0.0451681 19.7816 0.125538 19.8669C0.205909 19.9521 0.314911 20 0.428571 20H11.5714C11.6851 20 11.7941 19.9521 11.8745 19.8669C11.9548 19.7816 12 19.666 12 19.5455C12 18.3466 11.2503 17.3547 10.2321 16.9913C10.0907 15.3769 8.84361 14.0909 7.28571 14.0909V9.54545C7.37278 9.54546 7.45778 9.51734 7.5294 9.46485C7.60103 9.41236 7.65588 9.33797 7.68666 9.2516L9.17662 5.07191C9.19762 5.01271 9.20674 4.94952 9.2034 4.88636C9.33017 4.50319 9.42857 4.10287 9.42857 3.67454C9.42857 1.6532 7.89121 0 6 0ZM6 0.909091C6.30106 0.909091 6.58889 0.966608 6.85714 1.068V2.72727C6.85714 3.23485 6.47857 3.63636 6 3.63636C5.52143 3.63636 5.14286 3.23485 5.14286 2.72727V1.068C5.41111 0.966608 5.69894 0.909091 6 0.909091ZM4.28571 1.61399V2.72727C4.28571 3.72606 5.05829 4.54545 6 4.54545C6.94171 4.54545 7.71429 3.72606 7.71429 2.72727V1.61399C8.23931 2.11902 8.57143 2.85158 8.57143 3.67454C8.57143 4.05113 8.50147 4.40785 8.37472 4.73455C8.33696 4.83168 8.33209 4.93968 8.36093 5.04019C8.38977 5.1407 8.45055 5.22752 8.53292 5.28587L8.25419 5.08878L6.9894 8.63636H6H5.0106L3.74498 5.08967L3.46624 5.28675C3.54876 5.22853 3.60971 5.14178 3.6387 5.04126C3.6677 4.94074 3.66296 4.83267 3.62528 4.73544C3.4988 4.40849 3.42857 4.05165 3.42857 3.67454C3.42857 2.85158 3.76069 2.11902 4.28571 1.61399ZM5.57143 9.54545H6H6.42857V14.0909H5.57143V9.54545ZM4.71429 15H7.28571C8.32209 15 9.13945 15.7855 9.34235 16.8182H2.65765C2.86055 15.7855 3.67791 15 4.71429 15ZM2.57143 17.7273H9.42857C10.2279 17.7273 10.8648 18.31 11.0575 19.0909H0.942522C1.13517 18.31 1.77207 17.7273 2.57143 17.7273Z" fill="#555770"/>
</svg>
